<?xml version="1.0" standalone="no"?>
<!DOCTYPE svg PUBLIC "-//W3C//DTD SVG 1.1//EN" "http://www.w3.org/Graphics/SVG/1.1/DTD/svg11.dtd" >
<svg xmlns="http://www.w3.org/2000/svg">
<metadata>Generated by IcoMoon</metadata>
<defs>
<font id="tailcoat" horiz-adv-x="512">
<font-face units-per-em="512" ascent="480" descent="-32" />
<missing-glyph horiz-adv-x="512" />
<glyph unicode="&#x20;" d="" horiz-adv-x="256" />
<glyph unicode="&#x21;" d="M255.989 419.317c-129.386 0-234.656-105.29-234.656-234.677 0-54.763 19.275-108.053 54.293-150.091 3.093-3.723 7.691-5.867 12.533-5.867h335.691c4.843 0 9.429 2.144 12.533 5.867 34.998 42.038 54.284 95.328 54.284 150.091 0 129.387-105.28 234.677-234.678 234.677zM416.021 61.301h-320.053c-27.147 35.211-42.016 78.72-42.016 123.339 0 111.403 90.635 202.037 202.037 202.037 111.424 0 202.059-90.635 202.059-202.037 0-44.629-14.88-88.128-42.027-123.339zM355.573 249.141c-4.224 0-8.053-1.579-11.051-4.107l-0.043 0.032-105.664-87.424c-8.096-5.504-13.408-14.784-13.408-25.312 0-16.896 13.707-30.613 30.613-30.613 8.501 0 16.203 3.499 21.739 9.099h0.021l0.235 0.32c1.44 1.472 2.667 3.093 3.808 4.832l87.243 105.291c2.325 2.944 3.765 6.613 3.765 10.635-0.010 9.525-7.732 17.247-17.258 17.247zM101.557 191.872h-16.906c-5.397 0-9.781-4.373-9.781-9.781 0-5.397 4.384-9.781 9.781-9.781h16.907c5.397 0 9.781 4.384 9.781 9.781 0 5.408-4.384 9.781-9.782 9.781zM137.44 310.037c-3.819 3.808-10.005 3.819-13.824 0s-3.819-10.016 0-13.845l12.725-12.725c1.909-1.909 4.427-2.869 6.923-2.869s5.003 0.96 6.912 2.869c3.819 3.819 3.819 10.016 0 13.835l-12.736 12.735zM258.112 330.987c5.408 0 9.792 4.384 9.792 9.792v16.181c0 5.408-4.384 9.792-9.792 9.792s-9.781-4.384-9.781-9.792v-16.181c0-5.408 4.373-9.792 9.781-9.792zM377.163 309.813l-12.512-12.512c-3.808-3.819-3.808-10.005 0.021-13.835 1.909-1.909 4.405-2.869 6.901-2.869 2.507 0 5.013 0.96 6.923 2.869l12.512 12.512c3.819 3.829 3.819 10.027 0 13.835-3.819 3.83-10.016 3.84-13.845 0zM426.997 191.861h-17.61c-5.397 0-9.781-4.384-9.781-9.781 0-5.408 4.384-9.781 9.781-9.781h17.611c5.397 0 9.781 4.373 9.781 9.781 0 5.397-4.374 9.781-9.782 9.781z" />
<glyph unicode="&#x22;" d="M231.488 361.984c-3.787 3.787-9.131 5.525-14.432 4.651-5.269-0.885-9.813-4.235-12.192-9.024l-121.397-245.472-22.624-22.613-32.075-21.28c-4.16-2.752-6.859-7.232-7.36-12.192-0.491-4.939 1.269-9.856 4.779-13.387l51.925-51.925c3.136-3.115 7.381-4.853 11.744-4.853 0.555 0 1.109 0.011 1.653 0.064 4.96 0.512 9.419 3.2 12.192 7.339l21.589 32.565 20.523 20.523c0.597-0.885 1.291-1.717 2.059-2.496l53.408-53.408c3.115-3.115 7.232-4.832 11.648-4.832 4.405 0 8.533 1.707 11.616 4.8l7.691 7.691c6.411 6.432 6.389 16.875-0.021 23.264l-45.877 45.877 206.645 102.208c4.789 2.379 8.149 6.901 9.024 12.181s-0.864 10.656-4.651 14.432l-165.867 165.887zM89.397 16.235l-37.312 37.312 30.411 17.141 24.032-24.043-17.131-30.41zM490.539 279.808c-8.672 49.056-29.664 90.379-60.853 121.557-31.136 31.179-72.448 52.139-121.515 60.832-5.792 1.024-13.227-3.563-16.629-10.133-3.445-6.581-1.568-12.768 4.192-13.781l-0.054-0.043c46.037-8.117 84.629-27.829 113.824-57.024 29.227-29.237 48.971-67.829 57.056-113.856 1.003-5.749 7.189-7.648 13.867-4.181 1.792 0.971 3.445 2.208 4.843 3.605 3.797 3.787 5.973 8.853 5.269 13.024zM373.429 345.355c-18.4 18.4-41.216 32.352-67.733 40.757-5.365 1.696-12.971-2.187-16.939-8.651-4.021-6.4-2.955-13.045 2.411-14.741 24.235-7.723 45.237-20.533 62.187-37.461 17.003-17.035 29.835-38.251 37.717-62.72 1.707-5.333 8.363-6.411 14.816-2.357 1.333 0.832 2.56 1.803 3.637 2.891 4.181 4.203 6.357 9.867 4.992 14.144-8.64 26.516-22.581 49.62-41.088 68.138z" />
<glyph unicode="&#x23;" d="M474.656 49.227h-39.296l-23.861 71.968-106.112 320.213c-2.197 6.581-8.299 10.976-15.221 10.976h-63.019c-6.912 0-13.035-4.405-15.211-10.976l-129.995-392.182h-44.587c-8.842 0.001-16.021-7.199-16.021-16.031v-21.568c0-8.853 7.179-16.011 16.021-16.011h437.291c8.853 0 16.011 7.168 16.011 16.011v21.568c0.011 8.832-7.157 16.032-16 16.032zM238.571 419.936h40.181l0.181-0.576c-0.288-11.616-9.205-20.896-20.235-20.896-11.072 0-20.032 9.387-20.235 21.077l0.108 0.395zM304.203 343.083l25.845-77.952-155.573-38.635 30.475 91.979 99.253 24.608zM354.464 191.424l25.856-77.995-227.947-56.587h-34.144l27.424 82.741 208.811 51.841z" />
<glyph unicode="&#x24;" d="M295.659 84.789h-79.317c-7.776 0-14.080-6.293-14.080-14.069v-54.421c0-7.765 6.304-14.069 14.080-14.069h13.408l6.976-8.032c2.666-3.094 6.559-4.865 10.634-4.865h17.28c4.075 0 7.957 1.771 10.624 4.864l6.976 8.032h13.419c7.765 0 14.059 6.304 14.059 14.069l-0.001 54.422c0 7.776-6.293 14.069-14.058 14.069zM256 458.667c-79.019 0-143.307-63.36-143.307-141.269 0-39.755 16.629-83.051 44.576-116.224 0.288-0.427 0.608-0.853 0.928-1.259 8.491-10.485 32.757-45.525 32.757-68.245 0-9.717 7.872-17.579 17.589-17.579h94.869c0.16 0 0.32 0 0.469 0 2.315 0 4.651 0.448 6.891 1.408 6.485 2.752 10.688 9.12 10.688 16.171 0 20.192 20.096 52.587 32.757 68.245 0.757 0.939 1.397 1.963 1.931 3.040 27.072 32.917 43.115 75.392 43.115 114.443 0.033 77.909-64.244 141.269-143.263 141.269z" />
<glyph unicode="&#x25;" d="M409.237 280.16c-0.309-4.395-0.779-8.896-1.461-13.675-11.381-78.891-73.931-136.149-148.704-136.149h-24.352l-4.459-4.661c16.789-31.157 48.011-51.52 83.115-51.52h24.203l47.904-50.005c3.104-3.221 7.296-4.939 11.584-4.939 2.005 0 4.021 0.384 5.973 1.152 6.069 2.432 10.037 8.309 10.037 14.859v40.885c44.576 9.237 77.59 51.136 77.59 101.728 0 51.754-35.382 94.634-81.43 102.325zM384.939 269.771c1.109 7.765 1.653 14.72 1.653 21.333 0 75.915-57.205 137.696-127.531 137.696h-110.187c-70.335 0-127.541-61.781-127.541-137.696 0-68.16 45.045-124.395 105.408-135.637v-58.048c0-7.616 4.64-14.475 11.712-17.323 2.261-0.896 4.608-1.344 6.944-1.344 5.013 0 9.899 2.016 13.493 5.771l65.973 68.885h34.208c63.19-0.011 116.129 48.939 125.868 116.363z" />
<glyph unicode="&#x26;" d="M80.213 280.661h62.166v-115.669h-62.166zM164.277 280.661h62.166v-115.669h-62.166zM248.341 280.661h62.166v-115.669h-62.166zM475.029 278.165h-20.459v54.123c0 9.931-8.128 18.080-18.059 18.080h-397.13c-9.909 0-18.048-8.149-18.048-18.080v-216.587c0-9.941 8.139-18.069 18.048-18.069h397.12c9.931 0 18.059 8.128 18.059 18.069v54.133h20.459c8.619 0 15.637 7.040 15.637 15.637v77.024c0.011 8.598-7.008 15.67-15.627 15.67zM418.453 133.76h-361.024v180.48h361.024v-180.48z" />
<glyph unicode="&#x27;" d="M500.32 48.597c-3.648 16.203-54.635 92.736-70.421 116.16-1.227 1.813-3.264 2.901-5.451 2.901l-336.896 0.001c-2.197 0-4.224-1.088-5.451-2.901-15.787-23.424-66.773-99.968-70.421-116.16-2.187-6.603-0.427-11.168 1.461-13.845 4.373-6.187 13.365-8.821 30.037-8.821h425.643c16.672 0 25.664 2.645 30.037 8.821 1.889 2.666 3.649 7.22 1.462 13.844zM488.128 42.336c-0.245-0.32-2.795-3.264-19.307-3.264h-425.642c-16.512 0-19.061 2.933-19.307 3.264-0.096 0.16-0.139 0.917 0.363 2.357 0.128 0.363 0.245 0.928 0.32 1.301 1.013 5.952 19.424 36.448 41.888 71.179h379.136c22.443-34.72 40.864-65.216 41.877-71.147 0.064-0.448 0.16-0.896 0.32-1.333 0.491-1.44 0.448-2.208 0.352-2.357zM281.237 100.651h-47.733c-2.816 0-5.109-1.963-5.109-4.363v-28.597c0-2.4 2.293-4.352 5.109-4.352h47.733c2.827 0 5.099 1.952 5.099 4.352v28.597c0 2.4-2.283 4.363-5.099 4.363zM402.155 182.411h24.384v24.373h-0.011v190.923c0 13.461-10.901 24.373-24.373 24.373h-292.683c-13.461 0-24.384-10.901-24.384-24.373v-190.923c0-0.021 0-0.032 0-0.053v-24.32h317.067zM102.613 406.112h305.195v-199.339h-305.195v199.339z" />
<glyph unicode="&#x28;" d="M256 458.677c-129.397 0-234.667-105.259-234.667-234.667 0-129.397 105.27-234.677 234.667-234.677s234.667 105.291 234.667 234.688c0 129.398-105.27 234.656-234.667 234.656zM256 22.709c-58.912 0-112 25.451-148.843 65.952 1.504 4.395 11.584 33.493 18.272 46.859 7.243 14.496 9.653 16.096 25.76 30.603 16.096 14.475-32.203 20.917-43.467 32.192-11.275 11.275-16.907 11.275-29.771 21.483-9.632 7.637-15.221-26.197-17.419-43.723-3.776 15.371-5.824 31.435-5.824 47.957 0 42.72 13.419 82.315 36.203 114.955-6.421-19.883-12.16-48.864 12.789-40.064 27.36 9.675 29.781 20.939 29.781 20.939l16.096 28.171c0 0 2.411-39.435 5.643-45.067 3.221-5.643 16.096-21.76 20.917 0.789 8.875 41.429 10.379 53.131 25.664 53.131s46.773 12.085 50.005-24.949c3.211-37.035-3.232-15.296-23.349-24.96-20.117-9.653-24.949-43.456-6.443-47.488 18.517-4.021 60.373-20.917 60.373-20.917l20.917-23.349 6.453-24.949c0 0 4.011-28.171 4.011-30.581s0-25.771 0-25.771 0.821-50.699 19.317-38.635c18.517 12.085 69.227 90.965 58.773 120.747-10.464 29.781-11.275 33.013 8.032 43.467 19.317 10.464 33.003 23.339 32.203 37.835-0.565 10.155 0.459 16.363 0.587 23.029 15.659-28.64 24.587-61.461 24.587-96.32 0.024-111.032-90.27-201.336-201.267-201.336z" />
<glyph unicode="&#x29;" d="M474.037 73.173h-436.064c-9.194 0-16.64-7.445-16.64-16.64 0-9.184 7.445-16.661 16.64-16.661h436.064c9.184 0 16.629 7.467 16.629 16.661s-7.445 16.64-16.629 16.64zM95.371 99.499h65.792c5.515 0 9.995 4.48 9.995 10.005l-0.001 219.744c0 5.525-4.469 9.984-9.995 9.984h-65.791c-5.525 0-9.995-4.459-9.995-9.984v-219.744c0.011-5.525 4.469-10.005 9.995-10.005zM221.909 283.264c-5.515 0-9.995-4.459-9.995-9.995v-163.765c0-5.525 4.48-10.005 9.995-10.005h65.792c5.515 0 9.984 4.48 9.984 10.005v163.765c0 5.525-4.469 9.995-9.984 9.995h-65.792zM348.448 408.128c-5.515 0-10.005-4.48-10.005-10.005v-288.619c0-5.525 4.491-10.005 10.005-10.005h65.792c5.504 0 9.973 4.48 9.973 10.005v288.619c0 5.525-4.469 10.005-9.973 10.005h-65.792z" />
<glyph unicode="&#x2a;" d="M479.349 402.176c-1.834 6.549-7.776 11.371-14.912 11.371h-416.885c-8.597 0-15.552-6.987-15.552-15.563v-347.968c0-8.597 6.955-15.563 15.552-15.563h416.875c8.619 0 15.563 6.965 15.563 15.563l-0.001 311.701v36.267c0.011 1.461-0.256 2.859-0.64 4.192zM317.419 382.432h45.579l-91.392-78.475h-45.579l91.392 78.475zM224.075 382.432h45.589l-91.413-78.475h-45.557l91.381 78.475zM63.125 382.432h19.829l-19.829-17.045v17.045zM63.125 324.373l67.605 58.059h45.568l-91.381-78.475h-21.792v20.416zM448.885 65.557h-385.76v219.733h385.77l0.001-219.733zM448.885 303.957h-36.16l36.16 31.061v-31.061zM448.885 376.021l-83.925-72.064h-45.579l91.381 78.475h38.123v-6.411zM272.736 245.472c-3.296 5.771-9.429 9.376-16.096 9.376-6.656 0-12.811-3.616-16.107-9.376l-67.552-118.987c-3.232-5.749-3.2-12.757 0.117-18.453 3.317-5.717 9.419-9.205 16.011-9.205h135.040c6.603 0 12.683 3.499 16 9.205 3.328 5.707 3.371 12.715 0.128 18.453l-67.541 118.987zM265.077 121.589c-2.048-1.824-4.437-2.731-7.189-2.731-2.773 0-5.205 0.907-7.264 2.699-2.080 1.792-3.115 4.32-3.115 7.552 0 2.837 0.981 5.237 2.987 7.221 1.963 1.973 4.395 2.965 7.285 2.965 2.88 0 5.323-0.992 7.339-2.965 2.016-1.984 3.029-4.395 3.029-7.221-0.010-3.2-1.024-5.696-3.072-7.52zM267.691 197.419l-2.955-33.717c-0.299-4.011-0.992-7.093-2.048-9.227-1.067-2.144-2.784-3.211-5.205-3.211-2.464 0-4.171 1.035-5.12 3.093-0.96 2.091-1.643 5.248-2.037 9.483l-2.208 32.757c-0.395 6.379-0.608 10.965-0.608 13.739 0 3.787 0.981 6.741 2.987 8.864 1.963 2.123 4.587 3.179 7.819 3.179 3.915 0 6.539-1.344 7.861-4.064 1.333-2.731 1.973-6.635 1.973-11.723-0.011-3.029-0.161-6.080-0.459-9.173z" />
<glyph unicode="&#x2b;" d="M454.261 41.024l-113.76 151.509h-8.224l-8.256-8.245-12.139 16.768c26.976 27.328 43.659 64.832 43.659 106.208 0.011 83.467-67.914 151.403-151.402 151.403s-151.414-67.936-151.414-151.403c0-83.499 67.915-151.413 151.403-151.413 24.725 0 48.053 6.091 68.693 16.651l15.157-17.269-9.109-9.141v-4.331c0 0 112-140.651 118.955-147.595 6.933-6.955 22.56-4.341 22.56-4.341s22.592 13.035 33.867 24.309c11.285 11.274 0.010 26.89 0.010 26.89zM106.208 307.264c0 53.973 43.936 97.92 97.931 97.92 54.005 0 97.931-43.947 97.931-97.92 0-54.016-43.925-97.931-97.931-97.931-53.995 0-97.931 43.915-97.931 97.931z" />
<glyph unicode="&#x2c;" d="M469.813 214.827c-8.736 8.746-235.744 235.744-235.744 235.744l-98.357-2.88-30.827-30.827c9.045-10.784 17.557-21.685 24.064-31.413 5.493 2.912 11.744 4.576 18.389 4.576 21.728 0 39.339-17.621 39.339-39.349 0-21.707-17.611-39.328-39.339-39.328-21.717 0-39.328 17.611-39.328 39.328 0 4.747 0.885 9.269 2.421 13.472-9.675 7.264-20.693 16.971-31.328 26.933l-23.861-23.861v-101.376l235.179-235.179c0 0 7.040-9.653 16.683 0 9.653 9.643 162.72 162.731 162.72 162.731s8.747 12.671-0.011 21.429zM133.888 358.059c0.267 0 0.747 0.011 0.939 0.224 5.568 5.568-28.853 51.125-75.275 99.701-1.28 0.235-3.925 0.683-6.944 0.683-3.936 0-9.227-0.747-12.043-4.31-2.4-3.029-2.901-7.84-1.493-14.325 29.813-31.957 81.419-81.973 94.816-81.973zM73.419 218.080l88.373-221.973c0 0 2.283-10.005 13.195-5.685 5.184 2.059 46.891 18.667 89.323 35.573l-0.032-0.011-190.859 192.096z" />
<glyph unicode="&#x2d;" d="M488.704 166.229l-68.427 94.197c-1.931 2.656-5.003 4.224-8.299 4.224-3.275 0-6.347-1.579-8.267-4.224l-68.437-94.187c-2.261-3.115-2.603-7.232-0.843-10.667 1.749-3.435 5.291-5.6 9.12-5.6h37.909c-8.256-13.984-18.773-26.709-31.563-37.504-29.781-25.109-67.552-37.109-106.379-33.813-37.749 3.211-72.267 20.661-97.237 49.12-8.693 9.909-23.797 10.891-33.707 2.187-9.92-8.693-10.912-23.787-2.219-33.707 33.152-37.781 79.008-60.928 129.099-65.195 5.621-0.48 11.189-0.715 16.757-0.715 45.557 0 89.227 15.883 124.469 45.589 24.117 20.331 42.475 45.675 54.165 74.027h45.557c3.851 0 7.371 2.165 9.12 5.6 1.785 3.447 1.454 7.554-0.818 10.668zM108.288 187.541l68.437 94.208c2.251 3.115 2.592 7.232 0.832 10.667-1.749 3.435-5.28 5.589-9.109 5.589h-38.283c27.776 47.435 80.747 76.16 138.123 71.307 38.059-3.243 72.8-20.917 97.824-49.749 8.64-9.963 23.723-11.029 33.685-2.4 9.963 8.651 11.040 23.744 2.379 33.696-33.205 38.283-79.328 61.749-129.824 66.059-85.525 7.306-163.744-41.665-195.435-118.913h-45.354c-3.84 0-7.371-2.155-9.12-5.589-1.739-3.424-1.419-7.552 0.853-10.667l68.437-94.208c1.92-2.645 5.003-4.224 8.288-4.224 3.264 0 6.336 1.579 8.267 4.224z" />
<glyph unicode="&#x2e;" d="M479.349 402.176c-1.845 6.539-7.776 11.371-14.912 11.371h-416.885c-8.587 0-15.552-6.987-15.552-15.563v-347.989c0-8.565 6.965-15.552 15.552-15.552h416.875c8.608 0 15.563 6.987 15.563 15.552l-0.001 311.712v36.277c0.011 1.451-0.256 2.859-0.64 4.192zM63.115 324.363l67.637 58.059h45.547l-91.392-78.465h-21.792v20.406zM63.115 382.432h19.851l-19.851-17.045v17.045zM269.664 382.432l-91.413-78.475h-45.557l91.381 78.475h45.589zM362.997 382.432l-91.381-78.475h-45.589l91.381 78.475h45.589zM448.875 303.957h-36.139l36.139 31.061v-31.061zM364.949 303.957h-45.6l91.413 78.475h38.101l0.001-6.432-83.915-72.043zM448.875 65.579h-385.76v219.712h385.761l-0.001-219.712zM369.248 127.275h-222.56c-3.456 0-6.24-2.784-6.24-6.219 0-3.456 2.784-6.229 6.24-6.229h222.549c3.456 0 6.24 2.773 6.24 6.229 0.011 3.424-2.773 6.219-6.229 6.219zM369.248 178.752h-222.56c-3.456 0-6.24-2.773-6.24-6.251 0-3.424 2.784-6.197 6.24-6.197h222.549c3.456 0 6.24 2.773 6.24 6.197 0.011 3.488-2.773 6.251-6.229 6.251zM369.248 230.229h-222.56c-3.456 0-6.24-2.805-6.24-6.24 0-3.424 2.784-6.219 6.24-6.219h222.549c3.456 0 6.24 2.805 6.24 6.219 0.011 3.435-2.773 6.24-6.229 6.24z" />
<glyph unicode="&#x2f;" d="M402.613 420.331c-4.864 3.147-10.955 3.584-16.224 1.216l-200.053-90.229-37.333 19.189 10.549 6.347 157.877 74.719c8.491 4 12.128 14.165 8.096 22.699-4.021 8.459-14.187 12.107-22.667 8.085l-191.531-90.656c-5.952-2.816-9.749-8.811-9.749-15.381l0.001-321.653c0-6.603 3.808-12.629 9.781-15.413l71.627-33.653c2.325-1.077 4.789-1.611 7.264-1.611 2.336 0 4.672 0.491 6.848 1.429l203.136 89.195c6.176 2.709 10.176 8.821 10.176 15.595v315.807c0 5.792-2.923 11.179-7.798 14.315z" />
<glyph unicode="&#x30;" d="M493.803 159.285l-76.672 105.536c-2.155 2.965-5.611 4.725-9.28 4.725s-7.125-1.76-9.28-4.725l-76.672-105.525c-2.549-3.509-2.891-8.117-0.939-11.957 1.952-3.851 5.899-6.272 10.219-6.272h42.475c-9.269-15.669-21.045-29.931-35.36-42.005-33.376-28.139-75.712-41.589-119.211-37.899-43.488 3.712-82.933 24.117-111.072 57.493s-41.579 75.712-37.877 119.189c3.701 43.509 24.107 82.955 57.483 111.093 33.376 28.139 75.691 41.579 119.2 37.888 42.635-3.637 81.557-23.435 109.589-55.744 9.696-11.168 26.592-12.363 37.771-2.688 11.157 9.696 12.352 26.603 2.667 37.76-37.227 42.891-88.885 69.195-145.493 74.027-57.719 4.875-113.922-12.981-158.242-50.314-44.299-37.365-71.413-89.739-76.32-147.488-4.906-57.728 12.939-113.91 50.304-158.219 37.355-44.309 89.728-71.413 147.477-76.331 6.272-0.533 12.533-0.789 18.752-0.789 51.051 0 99.989 17.803 139.467 51.093 27.029 22.784 47.605 51.168 60.704 82.944h51.029c4.32 0 8.256 2.421 10.219 6.272 1.963 3.819 1.611 8.438-0.938 11.936z" />
<glyph unicode="&#x31;" d="M206.976 344.512c-36.555 0-66.283-29.717-66.283-66.272 0-36.512 29.728-66.261 66.283-66.261 36.533 0 66.261 29.749 66.261 66.261 0 36.555-29.717 66.272-66.261 66.272zM256 458.667c-129.6 0-234.667-105.067-234.667-234.667 0-129.589 105.078-234.667 234.667-234.667s234.667 105.067 234.667 234.656c0 129.6-105.067 234.678-234.667 234.678zM376.192 79.904c-7.616-7.627-22.901-16.427-22.901-16.427s-10.56-1.76-15.275 2.912c-4.672 4.693-80.48 99.883-80.48 99.883v2.933l6.176 6.165-10.251 11.701c-13.973-7.168-29.749-11.285-46.475-11.285-56.501 0-102.464 45.995-102.464 102.443 0 56.491 45.963 102.453 102.464 102.453 56.459 0 102.443-45.963 102.443-102.453 0-27.968-11.296-53.333-29.536-71.84l8.213-11.349 5.589 5.6h5.568l76.949-102.528c-0.020 0.011 7.639-10.581-0.020-18.208z" />
<glyph unicode="&#x32;" d="M370.752 453.333h-229.493c-9.963 0.011-18.059-8.075-18.059-18.048v-422.56c-0.011-7.285 4.384-13.877 11.136-16.661 6.731-2.805 14.507-1.269 19.68 3.883l101.984 101.824 101.995-101.835c5.173-5.152 12.928-6.688 19.68-3.893 2.219 0.939 4.203 2.272 5.845 3.915 3.317 3.328 5.291 7.883 5.28 12.779v422.559c0.011 4.779-1.909 9.365-5.291 12.757-3.381 3.371-7.968 5.291-12.757 5.28z" />
<glyph unicode="&#x33;" d="M418.411 5.728c22.912 8.288 45.568 21.227 67.776 39.072 2.688 2.165 4.331 5.408 4.469 8.875 0.128 3.477-1.248 6.816-3.776 9.205l-121.867 114.795c-2.443 2.283-5.707 3.445-9.088 3.221-3.328-0.235-6.4-1.856-8.501-4.491-6.293-7.904-28.192-30.432-45.579-30.432-4.757 0-8.747 1.717-12.619 5.408-30.677 29.28-95.424 95.456-95.819 95.819-0.843 0.981-20.203 24.032 15.552 70.325 3.424 4.448 3.307 10.677-0.267 14.987l-96.383 116.203c-3.765 4.523-10.251 5.685-15.328 2.667-2.56-1.536-62.795-37.835-73.899-104.245-7.488-44.811 9.205-91.648 49.621-139.168 0.213-0.256 0.427-0.48 0.651-0.715l154.773-154.773c2.144-2.347 52.853-57.536 131.157-57.536 6.784 0 13.568 0.544 20.341 1.387l38.786 9.396z" />
<glyph unicode="&#x34;" d="M486.475 194.144c-9.43 9.419-254.112 254.101-254.112 254.101l-106.016-3.083-33.238-33.226c9.76-11.627 18.923-23.381 25.941-33.867 5.92 3.136 12.651 4.939 19.819 4.939 23.413 0 42.411-18.987 42.411-42.421 0-23.403-18.987-42.4-42.411-42.4-23.403 0-42.389 18.987-42.389 42.4 0 5.12 0.939 9.984 2.603 14.528-10.432 7.819-22.304 18.283-33.771 29.035l-25.717-25.717v-109.291l253.504-253.504c0 0 7.573-10.4 17.984 0 10.4 10.411 175.403 175.403 175.403 175.403s9.418 13.663-0.011 23.103zM124.384 348.544c0.288 0 0.8 0.011 1.003 0.235 6.005 6.005-31.104 55.115-81.131 107.477-1.376 0.256-4.245 0.725-7.488 0.725-4.235 0-9.952-0.8-12.992-4.64-2.581-3.274-3.115-8.448-1.6-15.445 32.128-34.443 87.755-88.352 102.208-88.352z" />
<glyph unicode="&#x35;" d="M256 458.667c-129.376 0-234.667-105.28-234.667-234.678 0-129.376 105.291-234.667 234.667-234.667s234.667 105.291 234.667 234.667c0 129.398-105.291 234.678-234.667 234.678zM445.557 309.952l-99.147-37.003c-9.504 17.483-23.936 31.936-41.44 41.44l37.013 99.157c45.793-20.853 82.732-57.802 103.574-103.594zM256 147.605c-42.112 0-76.384 34.272-76.384 76.384 0 42.123 34.272 76.373 76.384 76.373 42.101 0 76.384-34.251 76.384-76.373 0-42.101-34.283-76.384-76.384-76.384zM170.027 413.557l37.013-99.157c-17.493-9.515-31.947-23.947-41.461-41.429l-99.136 37.003c20.842 45.791 57.802 82.719 103.584 103.583zM66.443 138.016l99.136 37.013c9.515-17.493 23.957-31.947 41.451-41.451l-37.003-99.147c-45.792 20.854-82.742 57.793-103.584 103.585zM341.973 34.443l-37.003 99.147c17.493 9.504 31.936 23.947 41.44 41.451l99.147-37.013c-20.864-45.804-57.792-82.743-103.584-103.585z" />
<glyph unicode="&#x36;" d="M420.32 341.355l27.659 11.114 24.97 33.6-33.301 33.312-33.653-25.024-11.040-27.605-83.008-83.040 27.114-23.616zM469.067 115.371l-198.528 172.917c5.227 25.44 14.635 93.675-23.349 131.616-24.971 24.992-58.209 38.763-93.537 38.763-8.672 0-17.344-0.864-25.803-2.539-2.357-0.469-4.235-2.176-4.949-4.469-0.693-2.293-0.085-4.789 1.611-6.453l56.64-56.661 11.339-54.784-46.261-46.24-54.773 11.317-56.651 56.629c-1.707 1.707-4.192 2.325-6.485 1.621-2.272-0.683-3.989-2.581-4.448-4.939-8.609-43.456 4.927-88.042 36.223-119.338 18.613-18.603 47.616-28.437 83.936-28.437v0c15.211 0 31.637 1.728 47.68 5.077l172.619-198.208c14.25-14.251 32.789-21.91 52.512-21.91s38.283 7.669 52.224 21.632c28.8 28.779 28.81 75.627 0 104.406zM429.867 50.144c-7.179-7.221-18.848-7.221-26.048 0h-0.011c-7.189 7.179-7.189 18.859 0 26.059 7.211 7.179 18.88 7.179 26.059-0.021h0.011c7.199-7.211 7.199-18.859-0.011-26.038zM182.453 173.568c-6.56 6.571-17.237 6.571-23.808 0l-110.41-110.421c-6.592-6.571-6.592-17.237 0-23.808l43.072-43.093c6.581-6.581 17.227-6.581 23.829 0l107.136 107.114c6.581 6.613 6.581 17.259 0 23.819l-39.819 46.389z" />
<glyph unicode="&#x37;" d="M458.123 426.123c14.57-14.571 21.877-32.075 21.877-52.502v-299.253c0-20.427-7.307-37.92-21.877-52.501-14.582-14.56-32.075-21.867-52.502-21.867h-299.242c-20.427 0-37.92 7.307-52.501 21.877-14.571 14.582-21.878 32.075-21.878 52.502v299.242c0 20.427 7.307 37.92 21.877 52.501 14.582 14.571 32.075 21.878 52.502 21.878h299.253c20.416 0 37.92-7.307 52.491-21.877zM402.123 84c0 51.925-12.821 99.755-38.496 143.499s-60.373 78.443-104.128 104.128c-43.744 25.675-91.573 38.496-143.499 38.496v-55.125c63.573 0 117.995-22.613 163.189-67.808s67.808-99.616 67.808-163.189l55.126-0.001zM305.003 84c0 51.925-18.507 96.384-55.563 133.44s-81.515 55.563-133.44 55.563v-55.125c36.757 0 68.245-12.992 94.496-38.933 26.261-25.952 39.371-57.611 39.371-94.933l55.136-0.001zM192.128 122.496c0 10.496-3.637 19.381-10.933 26.688s-16.192 10.933-26.688 10.933-19.552-3.637-27.125-10.933c-7.563-7.307-11.371-16.192-11.371-26.688s3.648-19.552 10.933-27.125c7.307-7.563 16.32-11.371 27.125-11.371s19.819 3.797 27.125 11.371c7.297 7.584 10.934 16.629 10.934 27.125z" />
<glyph unicode="&#x38;" d="M499.744 299.573c1.056-1.077 1.589-3.37 1.589-6.922v-200.096c0-5.675-3.008-11.52-9.045-17.557-6.027-6.027-12.235-9.045-18.635-9.045l-436.373-0.001c-5.675 0-11.541 3.008-17.568 9.045-6.037 6.038-9.045 11.883-9.045 17.558v200.096c0 3.552 0.363 5.856 1.067 6.923 0.704 1.077 3.904 0.533 9.579-1.6 5.685-2.827 41.685-21.461 108.032-55.861 66.347-34.421 100.224-52.341 101.621-53.76 7.104-3.541 15.445-5.323 25.024-5.323s17.557 1.781 23.947 5.323c2.837 1.419 37.259 19.339 103.243 53.76 66.005 34.411 101.824 53.035 107.509 55.861 4.959 2.111 7.967 2.666 9.055 1.599zM11.733 370.347c-2.144 7.093 2.464 10.997 13.835 11.701h460.853c10.656-0.704 15.083-4.608 13.312-11.712-1.781-7.083-6.912-12.779-15.435-17.035-3.552-2.133-21.643-12.053-54.283-29.803-32.64-17.728-65.461-35.477-98.443-53.205-33.013-17.739-50.219-26.624-51.637-26.624-6.389-4.245-14.357-6.379-23.947-6.379s-17.92 2.133-25.024 6.379c-116.351 62.464-184.468 99.008-204.329 109.643-7.808 4.256-12.768 9.952-14.902 17.035z" />
<glyph unicode="&#x39;" d="M256 474.667c-97.205 0-176-107.2-176-176 10.667-69.877 149.333-325.333 176-325.333s165.333 255.455 176 325.333c0 68.8-78.805 176-176 176zM214.773 354.208c0 22.517 18.464 40.747 41.269 40.747 22.795 0 41.269-18.229 41.269-40.747 0-4.619-0.789-9.024-2.219-13.173 2.464-1.088 4.192-3.541 4.192-6.379 0-3.851-3.168-6.976-7.061-6.976-0.053 0-0.085 0-0.128 0-1.472-18.4-17.045-36.821-36.053-36.821-19.019 0-34.592 18.432-36.053 36.821-0.043 0-0.075 0-0.128 0-3.904 0-7.083 3.125-7.083 6.976 0 2.837 1.739 5.291 4.203 6.379-1.429 4.149-2.208 8.554-2.208 13.173zM336.885 232.907c0-1.984-1.515-3.573-3.392-3.573l-154.912-0.001c-1.877 0-3.392 1.589-3.392 3.573v12.789c0 0.971 0.373 1.899 1.035 2.571 15.232 15.595 33.877 26.475 53.941 31.467 0.235 0.075 0.512 0.107 0.768 0.107h1.291c0.565 0 1.109-0.149 1.6-0.437 5.92-3.328 14.005-5.248 22.219-5.248s16.299 1.92 22.208 5.248c0.491 0.288 1.045 0.437 1.589 0.437h1.781c0.576 0 1.131-0.16 1.632-0.448 19.541-5.12 37.717-15.883 52.597-31.125 0.661-0.661 1.035-1.6 1.035-2.571v-12.789z" />
<glyph unicode="&#x3a;" d="M256 474.667c-97.205 0-176-107.2-176-176 10.667-69.877 149.333-325.333 176-325.333s165.333 255.455 176 325.333c0 68.8-78.805 176-176 176zM214.069 229.995c-1.557-1.611-3.68-2.475-5.824-2.475-1.024 0-2.027 0.203-3.008 0.597-3.051 1.227-5.056 4.181-5.056 7.467v25.077c-26.069 4.853-45.525 29.109-45.525 58.571 0 32.768 24.704 59.445 55.072 59.445h47.595c30.357 0 55.061-26.677 55.061-59.445 0-2.869-0.235-5.877-0.725-9.216-4.203-29.109-27.051-50.251-54.336-50.251h-14.795l-28.459-29.77zM323.819 226.379v-17.664c0-2.827-1.717-5.365-4.341-6.421-0.832-0.331-1.707-0.501-2.571-0.501-1.867 0-3.659 0.747-5.003 2.144l-20.683 21.6h-10.443c-15.157 0-28.651 8.768-35.893 22.229l1.931 2.005h10.528c32.267 0 59.285 24.725 64.213 58.795 0.288 2.069 0.501 4.021 0.629 5.92 19.872-3.317 35.168-21.835 35.168-44.171-0.021-21.867-14.282-39.958-33.535-43.936z" />
<glyph unicode="&#x3b;" d="M500.629 279.765c-1.931 5.984-7.445 10.069-13.728 10.219l-163.381 3.275-53.621 152.65c-2.070 5.899-7.659 9.846-13.899 9.846s-11.829-3.947-13.899-9.835l-53.621-152.661-163.371-3.286c-6.283-0.139-11.797-4.235-13.728-10.219s0.16-12.523 5.184-16.299l130.091-97.6-47.253-154.571c-1.835-5.995 0.32-12.491 5.376-16.192 5.056-3.691 11.904-3.808 17.056-0.245l134.165 92.396 134.187-92.395c2.517-1.728 5.429-2.592 8.352-2.592 3.061 0 6.112 0.939 8.704 2.837 5.056 3.701 7.211 10.208 5.376 16.192l-47.286 154.571 130.112 97.6c5.024 3.787 7.104 10.325 5.184 16.309z" />
<glyph unicode="&#x3c;" d="M256 474.667c-97.205 0-176-107.2-176-176 10.667-69.877 149.333-325.333 176-325.333s165.333 255.455 176 325.333c0 68.8-78.805 176-176 176zM256 240c-32.395 0-58.667 26.272-58.667 58.667s26.272 58.667 58.667 58.667 58.667-26.272 58.667-58.667-26.272-58.667-58.667-58.667z" />
<glyph unicode="&#x3d;" d="M103.008 322.368v-308.875c0-10.4 8.448-18.837 18.869-18.837h268.245c10.421 0 18.869 8.437 18.869 18.837l0.001 308.875h-305.984zM424.075 395.957l-81.536-0.192-0.064 24.171c-0.032 18.443-15.072 33.429-33.536 33.397l-106.208-0.235c-18.453-0.043-33.429-15.093-33.365-33.536l0.043-24.181-81.537-0.181c-12.501-0.021-22.603-10.155-22.581-22.667 0.032-12.469 10.187-22.603 22.677-22.581l336.192 0.758c12.491 0.021 22.571 10.155 22.539 22.667 0.010 12.5-10.134 22.602-22.624 22.58zM312.384 395.701l-112.811-0.224-0.064 24.171c0 1.835 1.483 3.317 3.296 3.317l106.208 0.224c1.824 0 3.328-1.461 3.328-3.296l0.043-24.192z" />
<glyph unicode="&#x3e;" d="M405.355 112.555c0 0.051 0 0.113 0 0.173 0 16.566 13.429 29.995 29.995 29.995 16.383 0 29.699-13.135 29.99-29.448 0.005-0.772 0.005-0.832 0.005-0.894 0-16.566-13.429-29.995-29.995-29.995-16.383 0-29.699 13.135-29.99 29.448zM46.667 146.997c0 16.572 13.434 30.005 30.005 30.005s30.005-13.433 30.005-30.005c0-16.572-13.433-30.005-30.005-30.005s-30.005 13.433-30.005 30.005zM92.64 424.704c0 16.572 13.434 30.005 30.005 30.005s30.006-13.434 30.006-30.005c0-16.572-13.434-30.006-30.005-30.006s-30.005 13.434-30.005 30.006zM167.189 363.307l-11.627 21.685c-2.677 4.971-8.843 6.848-13.856 4.171-4.96-2.656-6.837-8.853-4.181-13.845l11.669-21.685c1.835-3.424 5.355-5.397 9.003-5.397 1.632 0 3.307 0.405 4.832 1.227 4.96 2.665 6.838 8.862 4.16 13.844zM178.272 299.392c1.856-3.456 5.387-5.397 9.045-5.397 1.643 0 3.275 0.395 4.811 1.216 4.981 2.677 6.837 8.885 4.181 13.856l-11.648 21.685c-2.667 4.96-8.853 6.848-13.835 4.171-4.992-2.677-6.837-8.864-4.181-13.835l11.627-21.696zM328.864 182.187l-23.669 13.525c-4.928 2.795-11.157 1.088-13.973-3.808-2.773-4.896-1.088-11.147 3.819-13.952l23.669-13.525c1.6-0.917 3.339-1.344 5.077-1.344 3.573 0 6.997 1.845 8.896 5.163 2.784 4.906 1.088 11.157-3.819 13.941zM388.064 148.405l-23.691 13.515c-4.907 2.784-11.136 1.088-13.952-3.797-2.784-4.917-1.088-11.157 3.797-13.973l23.669-13.504c1.621-0.917 3.349-1.344 5.099-1.344 3.52 0 6.976 1.856 8.853 5.163 2.806 4.884 1.089 11.146-3.775 13.94zM148.384 195.307l-23.84-13.184c-4.949-2.741-6.763-8.96-4.011-13.899 1.877-3.371 5.355-5.28 8.949-5.28 1.664 0 3.371 0.416 4.949 1.28l23.829 13.205c4.96 2.731 6.752 8.949 4.021 13.899-2.729 4.928-8.969 6.731-13.897 3.979zM450.421 412.981c0 25.206-20.501 45.686-45.706 45.686-25.152 0-45.653-20.48-45.653-45.685 0-8.032 2.091-15.563 5.749-22.133l-104.192-109.344c-9.461 5.728-20.501 9.077-32.331 9.077-34.613 0-62.752-28.149-62.752-62.741 0-34.581 28.139-62.731 62.752-62.731 0.661 0 1.237 0.075 1.899 0.096l23.275-91.349c-13.003-8.075-21.739-22.432-21.739-38.827 0-25.205 20.501-45.685 45.675-45.685 25.184 0 45.664 20.48 45.664 45.685 0 24.352-19.179 44.256-43.2 45.547l-23.285 91.36c20.405 10.357 34.443 31.509 34.443 55.915 0 12.907-3.915 24.928-10.635 34.901l104.181 109.333c6.091-3.029 12.928-4.757 20.149-4.757 25.205-0.012 45.706 20.468 45.706 45.652zM258.997 52.128c4.608 4.96 11.115 8.128 18.4 8.128 2.816 0 5.493-0.587 8.011-1.44 9.984-3.349 17.227-12.693 17.227-23.787 0-13.931-11.328-25.237-25.237-25.237-13.888 0-25.227 11.307-25.227 25.237 0 6.614 2.613 12.587 6.826 17.099zM262.795 219.883c-1.579-6.891-5.163-13.013-10.144-17.728-0.971-0.917-2.016-1.739-3.104-2.56-5.963-4.48-13.248-7.243-21.248-7.243-1.781 0-3.456 0.277-5.141 0.512-7.563 1.109-14.368 4.501-19.605 9.589-4.885 4.789-8.405 10.933-9.92 17.877-0.533 2.421-0.843 4.907-0.843 7.488 0 9.888 4.117 18.848 10.667 25.28 4.757 4.672 10.784 8.021 17.557 9.451 2.347 0.48 4.789 0.747 7.285 0.747 4.48 0 8.725-0.917 12.661-2.443 8.832-3.381 15.968-10.155 19.787-18.763 1.952-4.373 3.051-9.195 3.051-14.272-0.011-2.73-0.406-5.365-1.003-7.935zM404.715 387.765c-1.6 0-3.2 0.192-4.725 0.48-9.717 1.856-17.397 9.301-19.701 18.837-0.491 1.909-0.789 3.872-0.789 5.909 0 13.92 11.328 25.248 25.216 25.248 13.931 0 25.237-11.328 25.237-25.248 0.010-13.908-11.308-25.226-25.238-25.226z" />
<glyph unicode="&#x3f;" d="M388.48 247.861h-22.944c0.107 0.96 0.288 1.888 0.288 2.891v108.032c0 63.147-51.36 114.539-114.539 114.539-63.136 0-114.507-51.392-114.507-114.539v-10.517c0-16.149 13.056-29.216 29.216-29.216 16.192 0 29.216 13.077 29.216 29.216v10.517c0 30.923 25.184 56.085 56.075 56.085 30.901 0 56.096-25.152 56.096-56.085v-108.032c0-1.003 0.181-1.931 0.277-2.891h-184.138c-21.035 0-38.187-17.131-38.187-38.187v-182.123c0-21.098 17.152-38.218 38.187-38.218h264.96c21.035 0 38.187 17.12 38.187 38.219v182.123c0 21.056-17.152 38.186-38.187 38.186zM277.856 64.267h-43.712v42.144c0 12.064 9.76 21.867 21.856 21.867s21.856-9.803 21.856-21.867v-42.144z" />
<glyph unicode="&#x40;" d="M388.491 247.861h-22.976c0.107 0.949 0.309 1.909 0.309 2.869v49.472c0 63.147-51.371 114.539-114.528 114.539-63.115 0-114.507-51.381-114.507-114.539v-49.472c0-0.96 0.181-1.92 0.277-2.869h-13.557c-21.034 0-38.176-17.141-38.176-38.197v-182.133c0-21.067 17.142-38.198 38.176-38.198h264.981c21.035 0 38.177 17.131 38.177 38.208v182.123c0 21.056-17.142 38.197-38.176 38.197zM277.877 64.288h-43.755v42.123c0 12.064 9.771 21.877 21.867 21.877s21.888-9.813 21.888-21.877v-42.123zM194.933 247.861c0.107 0.949 0.277 1.909 0.277 2.869v49.472c0 30.923 25.152 56.085 56.075 56.085 30.891 0 56.075-25.163 56.075-56.085v-49.472c0-0.96 0.181-1.92 0.277-2.869h-112.704z" />
<glyph unicode="&#x41;" d="M483.040 233.067l-127.755 80.288c-7.627 4.789-17.653 2.485-22.443-5.109-4.789-7.616-2.485-17.653 5.109-22.432l105.184-66.101-104.8-61.995c-7.755-4.565-10.315-14.549-5.717-22.272 3.019-5.131 8.448-8 14.005-8 2.805 0 5.664 0.736 8.256 2.272l127.776 75.573c4.875 2.891 7.904 8.107 7.989 13.781 0.097 5.664-2.804 10.976-7.604 13.995zM174.027 157.483l-105.184 66.090 104.821 62.005c7.733 4.565 10.293 14.549 5.707 22.283-4.565 7.733-14.539 10.272-22.293 5.717l-127.745-75.583c-4.885-2.88-7.925-8.107-8-13.781-0.064-5.675 2.816-10.965 7.616-13.984l127.776-80.277c2.709-1.696 5.685-2.496 8.64-2.496 5.429 0 10.699 2.699 13.792 7.616 4.768 7.594 2.496 17.631-5.13 22.41zM301.557 363.989c-10.272 3.221-21.237-2.528-24.437-12.8l-75.872-242.72c-3.211-10.293 2.539-21.248 12.821-24.448 1.952-0.608 3.915-0.896 5.835-0.896 8.299 0 16.011 5.355 18.624 13.707l75.861 242.72c3.2 10.272-2.538 21.216-12.832 24.437z" />
<glyph unicode="&#x42;" d="M460.043 243.669l-35.765 62.197c-1.856 3.659-3.915 7.189-6.251 10.517-0.352 0.491-0.672 0.971-1.088 1.408-10.411 14.229-25.099 25.152-42.197 30.72-2.048 24.181-22.4 43.243-47.083 43.243-26.091 0-47.296-21.216-47.296-47.296 0-7.328 1.728-14.261 4.736-20.469-6.485-7.285-11.712-15.659-15.339-24.843-4.309 1.557-8.928 2.464-13.771 2.464s-9.44-0.907-13.749-2.464c-3.808 9.6-9.344 18.304-16.224 25.824 2.72 5.952 4.245 12.523 4.245 19.477 0 26.069-21.195 47.296-47.275 47.296-24.907 0-45.301-19.328-47.115-43.744-16.544-5.717-30.741-16.373-40.864-30.219-0.384-0.437-0.704-0.917-1.024-1.408-2.379-3.328-4.427-6.869-6.293-10.517l-35.744-62.197c-18.89-19.925-30.613-46.762-30.613-76.341 0-61.248 49.856-111.072 111.093-111.072 45.92 0 85.397 28 102.315 67.797 6.421-3.179 13.6-5.013 21.259-5.013s14.848 1.835 21.28 5.013c16.896-39.808 56.373-67.797 102.315-67.797 61.227 0 111.072 49.824 111.072 111.072 0 29.59-11.723 56.416-30.624 76.352zM132.427 95.275c-39.733 0-72.053 32.309-72.053 72.032 0 23.893 11.755 45.045 29.739 58.165 11.893 8.672 26.496 13.867 42.315 13.867 31.211 0 57.792-20 67.765-47.829 2.709-7.573 4.277-15.691 4.277-24.192-0.001-39.734-32.31-72.043-72.043-72.043zM268.96 158.389c-2.859-4.106-7.584-6.816-12.96-6.816s-10.091 2.709-12.939 6.816c-1.771 2.539-2.816 5.6-2.816 8.917 0 1.653 0.32 3.2 0.8 4.693 0.459 1.525 1.109 2.955 2.005 4.235 2.848 4.107 7.563 6.827 12.939 6.827s10.101-2.709 12.96-6.827c0.864-1.291 1.536-2.72 2.005-4.235 0.48-1.493 0.779-3.040 0.779-4.693 0.022-3.317-1.013-6.378-2.773-8.917zM379.595 95.275c-39.723 0-72.064 32.309-72.064 72.032 0 8.501 1.568 16.619 4.299 24.192 9.973 27.84 36.533 47.829 67.765 47.829 15.787 0 30.421-5.184 42.304-13.867 17.984-13.12 29.728-34.261 29.728-58.165 0-39.712-32.32-72.021-72.032-72.021zM132.405 216.821c-10.613 0-20.427-3.413-28.523-9.12-12.64-8.971-20.96-23.733-20.96-40.384 0-5.387 4.363-9.76 9.749-9.76 5.397 0 9.781 4.363 9.781 9.76 0 4.533 1.056 8.8 2.891 12.672 2.987 6.336 8.075 11.424 14.411 14.411 0.235 0.117 0.491 0.288 0.747 0.427 3.669 1.579 7.68 2.475 11.893 2.475 5.419 0 9.781 4.384 9.781 9.781 0.012 5.365-4.351 9.738-9.77 9.738zM378.539 216.821c-21.163 0-39.253-13.408-46.283-32.171-2.048-5.397-3.221-11.232-3.221-17.344 0-5.387 4.384-9.76 9.781-9.76 5.387 0 9.749 4.363 9.749 9.76 0 4.533 1.099 8.8 2.912 12.672 0.512 1.131 1.109 2.219 1.771 3.275 3.029 4.811 7.413 8.683 12.651 11.136 3.84 1.813 8.096 2.891 12.64 2.891 5.419 0 9.781 4.384 9.781 9.781 0 5.387-4.363 9.76-9.781 9.76z" />
<glyph unicode="&#x43;" d="M99.808 278.112c-3.296 0-5.984-2.667-5.984-5.973v-195.125c0-3.296 2.688-5.973 5.984-5.973h36.885c3.307 0 5.995 2.677 5.995 5.973v195.125c0 3.307-2.688 5.973-5.995 5.973h-36.885zM193.824 278.112c-3.296 0-5.963-2.667-5.963-5.973v-195.125c0-3.296 2.667-5.973 5.963-5.973h36.896c3.307 0 5.963 2.677 5.963 5.973v195.125c0 3.307-2.656 5.973-5.963 5.973h-36.896zM286.272 278.112c-3.296 0-5.952-2.667-5.952-5.973v-195.125c0-3.296 2.656-5.973 5.952-5.973h36.939c3.307 0 5.941 2.677 5.941 5.973v195.125c0 3.307-2.635 5.973-5.941 5.973h-36.939zM381.12 278.112c-3.296 0-5.984-2.667-5.984-5.973v-195.125c0-3.296 2.688-5.973 5.984-5.973h36.907c3.296 0 5.995 2.677 5.995 5.973l-0.001 195.125c0 3.307-2.699 5.973-5.995 5.973h-36.906zM58.005 312.363h395.862c0.053 0 0.085 0 0.139 0 8.224 0 14.912 6.667 14.912 14.912 0 6.389-4.021 11.84-9.643 13.963l-196.672 94.613c-4.085 1.973-8.853 1.973-12.928 0.011l-198.112-95.115c-6.293-3.019-9.653-9.984-8.107-16.768 1.547-6.806 7.584-11.616 14.549-11.616zM255.936 390.176c12.427 0 22.496-10.069 22.496-22.496s-10.069-22.496-22.496-22.496-22.496 10.069-22.496 22.496c0 12.427 10.069 22.496 22.496 22.496zM453.867 40.523h-395.862c-8.235 0-14.912-6.667-14.912-14.923s6.667-14.933 14.912-14.933h395.862c8.235 0 14.933 6.677 14.933 14.933s-6.699 14.923-14.933 14.923z" />
<glyph unicode="&#x44;" d="M349.013 108.139c2.517 3.573 4.821 7.285 6.987 11.147 0.565 0.992 1.131 2.005 1.664 3.019 0.896 1.717 1.792 3.424 2.603 5.184 1.216 2.581 2.379 5.184 3.435 7.872 5.067 12.768 8.235 26.645 9.28 41.173 0.267 3.381 0.469 6.784 0.469 10.24 0 3.477-0.203 6.859-0.469 10.251-1.163 16.171-5.056 31.456-11.125 45.408v0c0 0.011-0.021 0.053-0.032 0.075-2.037 4.661-4.277 9.184-6.795 13.504-0.107 0.181-0.224 0.384-0.32 0.565-0.971 1.643-1.984 3.253-3.008 4.843-1.035 1.611-2.091 3.179-3.211 4.747-0.757 1.077-1.515 2.197-2.304 3.243-0.021 0.011-0.021 0.021-0.021 0.021v0c-5.109 6.731-10.88 12.853-17.109 18.304 1.195 5.365 1.899 10.933 1.899 16.672 0 18.027-6.336 34.581-16.853 47.509 3.104 6.592 4.885 13.931 4.885 21.707 0 28.299-22.944 51.253-51.253 51.253v-46.464c-3.616 0.555-7.285 0.928-11.040 0.928-4.267 0-8.395-0.448-12.459-1.141l-0.001 46.686c-28.299 0-51.253-22.955-51.253-51.253 0-8.224 2.005-15.968 5.44-22.848-10.005-12.768-16.021-28.853-16.021-46.379 0-5.749 0.704-11.307 1.92-16.672-6.347-5.557-12.213-11.755-17.387-18.613v0c0 0 0 0-0.021 0-0.544-0.747-1.045-1.525-1.589-2.283-1.344-1.877-2.656-3.808-3.915-5.781-0.96-1.493-1.877-2.987-2.784-4.523-0.373-0.661-0.725-1.333-1.099-2.005-2.272-4.021-4.331-8.192-6.187-12.469v-0.011c-5.323-12.309-8.949-25.632-10.485-39.701v0c0-0.021 0-0.021 0-0.032-0.203-1.749-0.32-3.488-0.469-5.248-0.256-3.392-0.48-6.816-0.48-10.293s0.224-6.891 0.48-10.283c0.149-1.771 0.267-3.509 0.469-5.248 0-0.011 0-0.021 0-0.032v0c1.365-12.459 4.277-24.373 8.629-35.477 1.109-2.805 2.325-5.547 3.616-8.235 0.779-1.664 1.611-3.285 2.464-4.907 0.544-1.045 1.131-2.091 1.696-3.115 20.565-36.832 57.333-61.472 99.435-61.472 37.504 0 70.784 19.573 92.139 49.888v0c0.074 0.075 0.127 0.16 0.18 0.246zM451.147 304.128c4.203 2.901 6.72 7.691 6.72 12.811v23.541c0 8.587-6.965 15.563-15.573 15.563s-15.563-6.976-15.563-15.563v-15.36l-65.195-45.067c6.176-8.235 11.552-17.227 16-26.795l73.611 50.87zM61.525 304.128l74.133-51.243c4.448 9.589 9.781 18.581 15.947 26.837l-65.653 45.397v15.36c0 8.587-6.965 15.563-15.563 15.563-8.619 0-15.573-6.976-15.573-15.563v-23.541c0-5.119 2.507-9.898 6.709-12.81zM121.227 186.773c0 5.259 0.267 10.453 0.757 15.573l-74.411 0.001c-8.608 0-15.573-6.976-15.573-15.573s6.965-15.563 15.573-15.563h74.421c-0.49 5.13-0.767 10.304-0.767 15.562zM464.427 202.357h-73.056c0.491-5.12 0.757-10.315 0.757-15.573 0-5.269-0.267-10.443-0.757-15.563h73.056c8.597 0 15.573 6.965 15.573 15.563 0 8.597-6.976 15.573-15.573 15.573zM451.147 75.019l-71.691 49.557c-4.181-9.728-9.301-18.88-15.243-27.317l62.507-43.211v-15.36c0-8.608 6.955-15.563 15.563-15.563s15.573 6.965 15.573 15.563v23.52c0.011 5.109-2.517 9.888-6.709 12.811zM61.525 75.019c-4.203-2.923-6.709-7.701-6.709-12.821v-23.52c0-8.608 6.955-15.563 15.573-15.563 8.597 0 15.563 6.965 15.563 15.563v15.36l62.965 43.531c-5.931 8.469-11.008 17.643-15.157 27.381l-72.235-49.931z" />
<glyph unicode="&#x45;" d="M152.885 426.667h-88.362c-8.15 0-14.742-6.614-14.742-14.742v-88.363c0-8.128 6.592-14.731 14.741-14.731h88.363c8.128 0 14.709 6.603 14.709 14.731l0.001 88.363c0 8.128-6.582 14.742-14.71 14.742zM138.155 338.304h-58.891v58.891h58.891v-58.891zM152.885 282.901h-88.362c-8.149 0-14.741-6.592-14.741-14.72v-88.373c0-8.139 6.592-14.709 14.741-14.709h88.363c8.128 0 14.709 6.581 14.709 14.709v88.373c0 8.128-6.582 14.72-14.71 14.72zM138.155 194.549h-58.891v58.891h58.891v-58.891zM152.885 139.157h-88.362c-8.149 0-14.741-6.613-14.741-14.741v-88.352c-0.001-8.128 6.591-14.731 14.741-14.731h88.363c8.128 0 14.709 6.603 14.709 14.731v88.352c0 8.139-6.582 14.741-14.71 14.741zM138.155 50.784h-58.891v58.912h58.891v-58.912zM300.16 426.667h-88.331c-8.16 0-14.731-6.613-14.731-14.741v-88.363c0-8.128 6.571-14.731 14.731-14.731h88.331c8.16 0 14.752 6.603 14.752 14.731v88.362c-0.011 8.128-6.603 14.742-14.752 14.742zM285.472 338.304h-58.923v58.891h58.923v-58.891zM300.16 282.901h-88.331c-8.16 0-14.731-6.592-14.731-14.72v-88.373c0-8.139 6.571-14.709 14.731-14.709h88.331c8.16 0 14.752 6.581 14.752 14.709v88.373c-0.011 8.128-6.603 14.72-14.752 14.72zM285.472 194.549h-58.923v58.891h58.923v-58.891zM300.16 139.157h-88.331c-8.16 0-14.731-6.613-14.731-14.741v-88.352c0-8.139 6.571-14.731 14.731-14.731h88.331c8.16 0 14.752 6.603 14.752 14.731v88.352c-0.011 8.139-6.603 14.741-14.752 14.741zM285.472 50.784h-58.923v58.912h58.923v-58.912zM447.467 426.667h-88.352c-8.149 0-14.731-6.613-14.731-14.741v-88.363c0-8.128 6.581-14.731 14.731-14.731h88.352c8.16 0 14.752 6.603 14.752 14.731v88.362c0 8.128-6.592 14.742-14.752 14.742zM432.736 338.304h-58.901v58.891h58.901v-58.891zM447.467 282.901h-88.352c-8.149 0-14.731-6.592-14.731-14.72v-88.373c0-8.139 6.581-14.709 14.731-14.709h88.352c8.16 0 14.752 6.581 14.752 14.709v88.373c0 8.128-6.592 14.72-14.752 14.72zM432.736 194.549h-58.901v58.891h58.901v-58.891zM447.467 139.157h-88.352c-8.149 0-14.731-6.613-14.731-14.741v-88.352c0-8.139 6.581-14.731 14.731-14.731h88.352c8.16 0 14.752 6.603 14.752 14.731v88.352c0 8.139-6.592 14.741-14.752 14.741zM432.736 50.784h-58.901v58.912h58.901v-58.912z" />
<glyph unicode="&#x46;" d="M256 437.333c-117.653 0-213.333-95.69-213.333-213.333 0-117.621 95.68-213.333 213.333-213.333 117.632 0 213.333 95.712 213.333 213.333 0 117.643-95.701 213.333-213.333 213.333zM282.027 106.507c0-6.059-2.624-11.563-7.787-16.352-5.099-4.725-11.893-7.115-20.256-7.115-8.608 0-15.712 2.368-21.099 7.061-5.493 4.779-8.277 10.293-8.277 16.395v10.496c0 6.091 2.816 11.616 8.277 16.395 5.387 4.672 12.491 7.051 21.099 7.051 8.363 0 15.168-2.4 20.256-7.115 5.152-4.779 7.787-10.272 7.787-16.32v-10.496zM339.808 263.627c-3.371-6.613-7.691-12.427-12.811-17.301-5.045-4.757-10.539-9.067-16.363-12.779-5.579-3.541-10.837-7.381-15.605-11.403-4.672-3.936-8.587-8.341-11.648-13.109-2.912-4.533-4.395-10.219-4.395-16.853v-6.603c0-4.373-2.144-8.939-6.389-13.632-4.288-4.725-10.016-7.275-17.003-7.563l-1.461-0.032c-7.104 0-12.875 2.037-17.163 6.059-4.619 4.309-6.955 9.163-6.955 14.4 0 12.224 1.707 22.645 5.077 30.987 3.328 8.267 7.456 15.435 12.288 21.333 4.789 5.877 10.208 11.008 16.064 15.285 5.611 4.043 10.784 8.064 15.381 11.893 4.459 3.712 8.267 7.68 11.381 11.744 2.848 3.776 4.245 8.341 4.245 13.952 0 9.259-2.507 15.872-7.712 20.245-5.227 4.448-12.512 6.688-21.568 6.688-6.037 0-11.221-0.373-15.403-1.12-4.075-0.715-7.84-1.931-11.221-3.605-3.328-1.653-6.475-3.957-9.333-6.827-3.008-2.987-6.155-6.795-9.397-11.285-2.912-4.096-7.253-7.2-12.843-9.205-5.749-2.069-12.117-1.525-18.773 1.664-5.995 2.976-9.632 6.88-10.88 11.605-1.163 4.331-1.163 8.885-0.021 13.504 0.853 3.936 3.2 8.779 7.211 14.709 3.893 5.803 9.483 11.456 16.587 16.811 7.061 5.323 16.011 9.984 26.571 13.813 10.635 3.84 23.381 5.792 37.888 5.792 14.304 0 26.699-2.165 36.853-6.443 10.187-4.309 18.528-10.037 24.736-17.056 6.197-7.019 10.773-15.083 13.621-23.957 2.784-8.789 4.203-17.973 4.203-27.296 0.022-9.45-1.706-17.685-5.162-24.415z" />
<glyph unicode="&#x47;" d="M300.469 166.773l-20.224 2.827c-0.619 13.835-3.595 27.115-8.864 39.584l16.789 12.661c1.088 0.832 1.803 2.069 2.005 3.413 0.192 1.365-0.181 2.741-1.013 3.84l-23.349 30.891c-0.811 1.099-2.037 1.803-3.413 2.005s-2.731-0.171-3.819-1.003l-15.488-11.701c-10.261 9.461-21.973 16.885-34.933 22.123l2.763 19.819c0.213 1.355-0.171 2.731-0.992 3.829-0.832 1.099-2.048 1.803-3.403 2.005l-38.325 5.323c-1.429 0.203-2.741-0.16-3.851-0.992-1.077-0.821-1.803-2.059-2.005-3.413l-2.539-18.4c-14.304-0.597-28.011-3.744-40.864-9.355l-11.691 15.445c-1.707 2.272-4.939 2.709-7.232 1.013l-30.88-23.317c-1.109-0.832-1.824-2.059-2.005-3.413-0.192-1.365 0.171-2.741 1.003-3.84l11.061-14.645c-9.579-10.613-16.971-22.592-21.995-35.701l-19.349 2.677c-1.376 0.181-2.731-0.181-3.829-1.003-1.077-0.832-1.803-2.048-1.984-3.413l-5.312-38.325c-0.395-2.827 1.579-5.429 4.395-5.813l18.72-2.613c0.843-13.984 4.149-27.467 9.877-40.213l-16.309-12.309c-2.251-1.717-2.72-4.96-0.992-7.243l23.339-30.869c1.717-2.283 4.949-2.709 7.221-1.003l15.904 12.011c10.272-9.056 22.123-16.267 34.699-21.131l-2.901-21.131c-0.395-2.827 1.579-5.419 4.405-5.813l38.325-5.333c0.235-0.032 0.469-0.053 0.715-0.053 2.528 0 4.736 1.867 5.109 4.448l2.891 20.544c13.547 0.779 26.624 3.883 38.987 9.248l13.195-17.472c1.728-2.283 4.96-2.699 7.232-1.013l30.891 23.307c1.109 0.821 1.824 2.069 2.005 3.424 0.192 1.355-0.181 2.731-1.003 3.829l-12.64 16.725c9.109 10.037 16.245 21.44 21.28 33.952l21.621-3.008c2.731-0.341 5.44 1.579 5.835 4.405l5.344 38.336c0.393 2.857-1.559 5.47-4.407 5.854zM194.933 124.725c-8.693-6.571-19.040-10.048-29.909-10.048-15.744 0-30.197 7.189-39.691 19.723-16.491 21.835-12.149 53.035 9.717 69.557 8.693 6.571 19.051 10.037 29.899 10.037 15.744 0 30.176-7.179 39.637-19.691 16.523-21.844 12.193-53.076-9.653-69.578zM485.141 326.688l-7.84 28.981c-0.352 1.323-1.227 2.453-2.411 3.125-1.195 0.672-2.581 0.864-3.936 0.491l-13.557-3.701c-4.555 9.333-10.539 17.653-17.888 24.843l7.275 12.661c1.408 2.475 0.565 5.632-1.909 7.061l-26.005 14.933c-1.195 0.683-2.603 0.864-3.936 0.501-1.312-0.352-2.453-1.237-3.125-2.432l-6.677-11.637c-9.963 3.413-20.224 4.789-30.677 4.875l-3.701 13.589c-0.725 2.752-3.552 4.363-6.336 3.637l-28.939-7.851c-2.752-0.747-4.384-3.584-3.637-6.336l3.467-12.8c-9.472-4.747-17.856-10.933-24.981-18.443l-12.288 7.072c-2.453 1.419-5.632 0.587-7.061-1.92l-14.955-26.005c-0.683-1.195-0.864-2.603-0.501-3.925 0.341-1.323 1.216-2.453 2.411-3.125l11.904-6.805c-3.211-9.899-4.672-20.075-4.352-30.347l-14.368-3.925c-2.752-0.757-4.373-3.584-3.637-6.347l7.829-28.896c0.341-1.323 1.205-2.443 2.411-3.125 1.184-0.683 2.613-0.864 3.925-0.501l13.995 3.787c4.64-8.939 10.763-17.141 17.984-24.053l-7.787-13.557c-1.419-2.485-0.555-5.632 1.931-7.061l26.005-14.955c1.184-0.683 2.603-0.875 3.925-0.501 1.312 0.363 2.443 1.237 3.125 2.432l7.509 13.109c9.547-3.093 19.083-4.459 29.323-4.395l4.203-15.52c0.619-2.304 2.709-3.819 4.981-3.819 0.459 0 0.907 0.053 1.344 0.192l28.96 7.797c1.333 0.352 2.443 1.216 3.136 2.411 0.683 1.184 0.864 2.613 0.512 3.925l-4.011 14.795c8.949 4.48 16.971 10.325 23.915 17.408l13.899-7.957c2.496-1.397 5.632-0.576 7.061 1.909l14.955 26.005c0.683 1.173 0.864 2.581 0.512 3.925-0.352 1.323-1.227 2.443-2.421 3.125l-12.917 7.392c3.328 9.621 4.949 19.541 4.875 29.6l14.848 4.021c2.769 0.748 4.391 3.585 3.633 6.337zM408.448 297.248c-4.96-8.661-12.992-14.869-22.624-17.483-3.211-0.864-6.496-1.312-9.792-1.312-16.8 0-31.627 11.349-36 27.595-5.365 19.84 6.421 40.352 26.293 45.76 3.189 0.864 6.496 1.301 9.781 1.301 16.779 0 31.541-11.328 35.925-27.573 2.614-9.611 1.356-19.659-3.583-28.288z" />
<glyph unicode="&#x48;" d="M153.877 377.184c-5.877 0-10.656-4.8-10.656-10.688v-185.483c0-5.909 4.779-10.709 10.656-10.709 5.931 0 10.72 4.8 10.72 10.709v185.483c0 5.899-4.8 10.688-10.72 10.688zM259.093 341.291c-5.931 0-10.72-4.8-10.72-10.699v-93.355c0-5.899 4.789-10.688 10.72-10.688 5.877 0 10.688 4.789 10.688 10.688v93.355c0 5.899-4.81 10.699-10.688 10.699zM374.827 390.357c-5.867 0-10.656-4.811-10.656-10.72v-112.693c0-5.899 4.789-10.688 10.656-10.688 5.931 0 10.72 4.789 10.72 10.688v112.693c0 5.91-4.8 10.72-10.72 10.72zM340.811 223.467c-42.997 0-77.824-47.403-77.824-77.824 4.693-30.901 66.037-143.872 77.824-143.872 11.797 0 73.131 112.971 77.835 143.872-0.001 30.41-34.827 77.824-77.835 77.824zM340.811 119.712c-14.304 0-25.963 11.616-25.963 25.931 0 14.336 11.659 25.963 25.963 25.963 14.325 0 25.973-11.627 25.973-25.963 0-14.315-11.648-25.931-25.973-25.931zM468.053 424.693l-91.797 21.152c-3.285 0.747-6.741 0.405-9.835-1.013l-107.584-49.227-98.997 41.291c-3.712 1.515-7.776 1.579-11.531 0.117l-106.496-41.482c-5.941-2.326-9.813-8.011-9.813-14.358v-292.245c0-5.088 2.475-9.845 6.72-12.693 4.16-2.88 9.525-3.488 14.229-1.643l100.768 39.264 99.435-41.504c1.899-0.768 3.936-1.163 5.941-1.163 2.187 0 4.373 0.469 6.389 1.376l7.989 3.669-13.653 27.573-0.981-0.448-98.997 41.28c-1.92 0.779-3.893 1.173-5.963 1.173-1.845 0-3.765-0.352-5.568-1.045l-85.525-33.312v259.212l90.933 35.435 99.435-41.483c3.947-1.643 8.416-1.579 12.32 0.203l108.949 49.845 74.795-17.237v-260.693l-14.496 3.339-7.317-14.816c-1.12-2.581-2.379-5.12-3.776-7.637l-0.256-0.491-2.656-5.408 40.437-9.312c4.597-1.045 9.387 0.043 13.024 2.944 3.701 2.932 5.824 7.369 5.824 12.052v292.267c0 7.168-4.96 13.376-11.947 15.018z" />
<glyph unicode="&#x49;" d="M464.437 413.536h-416.885c-8.597 0-15.552-6.976-15.552-15.563v-347.947c0-8.608 6.955-15.563 15.552-15.563h416.885c8.608 0 15.563 6.955 15.563 15.563v347.947c0 8.587-6.955 15.563-15.563 15.563zM417.803 381.973c8.661 0 15.723-7.029 15.723-15.723 0-8.672-7.051-15.712-15.723-15.712-8.683 0-15.723 7.029-15.723 15.712s7.029 15.723 15.723 15.723zM361.792 381.973c8.672 0 15.723-7.029 15.723-15.723 0-8.672-7.040-15.712-15.723-15.712s-15.712 7.029-15.712 15.712c0 8.683 7.029 15.723 15.712 15.723zM305.781 381.973c8.672 0 15.733-7.029 15.733-15.723 0-8.672-7.051-15.712-15.733-15.712s-15.712 7.029-15.712 15.712c0 8.683 7.040 15.723 15.712 15.723zM448.885 65.568h-385.77v256.693h385.771l-0.001-256.693zM229.568 134.667c1.088-0.416 2.272-0.192 3.136 0.565l28.171 24.523 25.419-47.125c0.416-0.768 1.141-1.333 2.005-1.557 0.235-0.053 0.491-0.085 0.736-0.085 0.629 0 1.216 0.181 1.739 0.555l25.301 17.035c0.715 0.48 1.195 1.227 1.344 2.091 0.139 0.843-0.096 1.717-0.629 2.389l-31.637 40.939 33.44 13.365c1.035 0.405 1.781 1.344 1.92 2.453 0.171 1.109-0.277 2.208-1.173 2.891l-105.12 81.077c-1.013 0.768-2.379 0.843-3.456 0.224-1.099-0.64-1.696-1.856-1.525-3.115l18.368-133.749c0.137-1.122 0.894-2.082 1.961-2.476z" />
<glyph unicode="&#x4a;" d="M454.965 100.288h-266.741c-10.101 0-18.304-8.213-18.304-18.315s8.203-18.315 18.304-18.315h266.752c10.101 0 18.304 8.213 18.304 18.315s-8.203 18.315-18.315 18.315zM454.965 242.304h-266.741c-10.101 0-18.304-8.192-18.304-18.304s8.203-18.304 18.304-18.304h266.752c10.101 0 18.304 8.192 18.304 18.304s-8.203 18.304-18.315 18.304zM188.224 347.744h266.752c10.101 0 18.304 8.192 18.304 18.293 0 10.112-8.203 18.315-18.304 18.315h-266.752c-10.101 0-18.304-8.203-18.304-18.315s8.192-18.293 18.304-18.293zM102.411 407.029h-45.376c-10.112 0-18.315-8.192-18.315-18.293v-45.397c0-10.101 8.203-18.315 18.315-18.315h45.376c10.112 0 18.315 8.213 18.315 18.315l-0.001 45.397c-0.010 10.112-8.202 18.293-18.314 18.293zM102.411 265.013h-45.376c-10.112 0-18.315-8.213-18.315-18.325v-45.387c0-10.101 8.203-18.293 18.315-18.293h45.376c10.112 0 18.315 8.192 18.315 18.293v45.387c-0.011 10.123-8.203 18.325-18.315 18.325zM102.411 122.976h-45.376c-10.112 0-18.315-8.192-18.315-18.315v-45.376c0-10.101 8.203-18.315 18.315-18.315h45.376c10.112 0 18.315 8.213 18.315 18.315v45.376c-0.011 10.123-8.203 18.315-18.315 18.315z" />
<glyph unicode="&#x4b;" d="M479.36 402.176c-1.845 6.539-7.787 11.36-14.901 11.36h-416.896c-8.608 0.011-15.563-6.965-15.563-15.552v-347.957c0-8.608 6.955-15.563 15.563-15.563h416.896c8.587 0 15.541 6.955 15.541 15.563v347.957c0 1.461-0.267 2.848-0.64 4.192zM317.44 382.421h45.568l-91.403-78.464h-45.578l91.413 78.464zM224.085 382.421h45.568l-91.381-78.464h-45.589l91.402 78.464zM63.115 382.421h19.84l-19.84-17.045v17.045zM63.115 324.373l67.616 58.048h45.579l-91.381-78.464h-21.814v20.416zM448.885 65.568h-385.77v219.723h385.77v-219.723zM448.885 303.957h-36.16l36.16 31.061v-31.061zM448.885 376.021l-83.925-72.064h-45.568l91.392 78.464h38.101v-6.4zM289.888 172.288l33.749 33.749c2.443 2.432 2.443 6.368 0 8.8l-25.696 25.685c-2.443 2.432-6.379 2.432-8.8 0l-33.749-33.739-33.749 33.739c-2.336 2.347-6.453 2.347-8.789 0l-26.080-26.091c-2.432-2.421-2.432-6.368 0-8.8l33.749-33.739-33.557-33.547c-1.163-1.173-1.824-2.763-1.824-4.416s0.661-3.232 1.824-4.395l25.696-25.696c2.432-2.432 6.379-2.432 8.8 0l33.557 33.536 33.952-33.931c1.195-1.216 2.795-1.824 4.384-1.824s3.189 0.608 4.405 1.824l26.101 26.091c1.141 1.163 1.803 2.741 1.803 4.395s-0.661 3.243-1.803 4.416l-33.973 33.943z" />
<glyph unicode="&#x4c;" d="M473.728 92.939l-175.808 309.717c-8.555 15.104-24.555 24.416-41.909 24.416-17.376 0-33.365-9.323-41.931-24.416l-175.797-309.717c-8.469-14.912-8.363-33.216 0.267-48.043 8.629-14.827 24.512-23.957 41.664-23.957h351.573c17.163 0 33.024 9.131 41.664 23.957 8.64 14.827 8.736 33.12 0.277 48.043zM280.011 77.835c-5.888-5.237-12.885-7.893-20.768-7.893-7.979 0-15.040 2.624-21.013 7.797-6.091 5.291-9.184 12.704-9.184 22.037 0 8.192 2.923 15.253 8.683 21.003 5.728 5.749 12.864 8.661 21.163 8.661 8.277 0 15.456-2.891 21.323-8.629 5.877-5.76 8.885-12.843 8.885-21.035-0.001-9.205-3.052-16.565-9.089-21.941zM287.829 277.269l-7.659-87.712c-0.875-10.912-2.709-19.136-5.653-25.141-3.232-6.603-8.875-10.101-16.331-10.101-7.595 0-13.216 3.424-16.213 9.909-2.667 5.792-4.48 14.176-5.6 25.675l-5.707 85.365c-1.077 16.875-1.621 28.64-1.621 35.979 0 10.635 2.901 19.104 8.597 25.184 5.76 6.144 13.397 9.291 22.667 9.291 11.456 0 19.296-4.16 23.307-12.363 3.68-7.552 5.483-18.005 5.483-31.915 0-7.883-0.427-16.011-1.27-24.171z" />
<glyph unicode="&#x4d;" d="M255.989 453.333c-126.442 0-229.322-102.869-229.322-229.322 0-126.443 102.88-229.344 229.322-229.344 126.453 0 229.344 102.901 229.344 229.344 0 126.453-102.89 229.322-229.344 229.322zM255.989 26.208c-109.077 0-197.792 88.736-197.792 197.803 0 109.077 88.715 197.803 197.792 197.803 109.067 0 197.813-88.725 197.813-197.803 0.001-109.067-88.746-197.803-197.813-197.803zM243.765 348.533c1.451 0 2.56 0.373 3.403 1.173 0.843 0.789 1.291 1.685 1.291 2.667v30.987l21.963-31.893 0.245-0.395c0.32-0.779 0.875-1.387 1.653-1.856 0.789-0.459 1.803-0.672 2.997-0.672 1.365 0 2.485 0.373 3.328 1.173 0.843 0.789 1.259 1.685 1.259 2.667v46.379c0 1.003-0.416 1.877-1.259 2.667s-1.973 1.195-3.328 1.195c-1.536 0-2.741-0.416-3.605-1.195-0.875-0.789-1.301-1.664-1.301-2.667v-31.467l-22.048 32.213c-0.224 0.8-0.747 1.536-1.568 2.155-0.811 0.629-1.845 0.949-3.029 0.949-1.472 0-2.656-0.416-3.552-1.195-0.907-0.789-1.355-1.664-1.355-2.667v-46.389c0-0.981 0.448-1.877 1.355-2.667 0.895-0.788 2.079-1.162 3.551-1.162zM134.016 246.251c-0.619 1.024-1.664 1.717-3.147 2.091-1.323 0.331-2.517 0.224-3.605-0.32-1.109-0.555-1.771-1.291-2.048-2.219l-6.144-37.205-8.949 35.893c-0.427 1.312-1.003 2.315-1.717 2.997-0.683 0.693-1.835 1.035-3.435 1.035-2.464 0-4.096-1.333-4.917-4.032l-8.939-35.893-6.144 37.205c-0.331 0.928-1.024 1.664-2.091 2.219-1.056 0.555-2.293 0.661-3.648 0.32-1.429-0.373-2.443-1.077-3.072-2.091-0.64-0.992-0.789-1.984-0.533-2.912l9.771-45.483c0.267-0.939 0.875-1.749 1.824-2.432 0.96-0.672 2.123-1.013 3.499-1.013 1.355 0 2.517 0.341 3.477 1.013 0.949 0.683 1.568 1.483 1.856 2.432l9.003 33.931 9.076-33.92c0.288-0.939 0.917-1.749 1.845-2.432 0.971-0.672 2.123-1.013 3.477-1.013 1.323 0 2.464 0.341 3.467 1.013 0.971 0.683 1.6 1.483 1.877 2.432l9.749 45.483c0.268 0.927 0.097 1.909-0.532 2.901zM428.245 203.936h-18.357v13.525h12.299c1.589 0 2.784 0.395 3.573 1.173 0.779 0.8 1.173 1.813 1.173 3.072 0 1.376-0.395 2.464-1.173 3.243-0.789 0.789-1.984 1.205-3.573 1.205h-12.299v12.853h18.357c1.536 0 2.699 0.395 3.488 1.173 0.789 0.8 1.205 1.813 1.205 3.093 0 1.355-0.416 2.432-1.205 3.232-0.789 0.779-1.963 1.173-3.488 1.173l-23.018 0.002c-1.483 0-2.677-0.395-3.573-1.173-0.896-0.811-1.376-1.685-1.376-2.667v-44.768c0-0.981 0.48-1.856 1.376-2.667 0.896-0.789 2.091-1.173 3.573-1.173h23.019c1.536 0 2.699 0.395 3.488 1.173 0.789 0.8 1.205 1.824 1.205 3.072 0 1.376-0.416 2.464-1.205 3.243-0.79 0.811-1.953 1.216-3.489 1.216zM269.227 67.701c-1.792 1.248-3.723 2.261-5.792 3.093-2.091 0.821-4 1.643-5.781 2.443-1.771 0.843-3.264 1.749-4.427 2.805-1.184 1.035-1.749 2.432-1.749 4.181 0 2.016 0.619 3.573 1.888 4.629 1.248 1.067 2.859 1.6 4.821 1.6 2.283 0 4.128-0.363 5.483-1.077 1.376-0.715 2.389-1.333 3.040-1.888 0.608-0.501 1.248-0.928 1.941-1.301 0.661-0.395 1.483-0.576 2.347-0.576 1.472 0 2.517 0.395 3.136 1.173 0.64 0.811 0.96 1.824 0.96 3.093 0 0.693-0.352 1.589-1.077 2.667-0.693 1.056-1.771 2.080-3.168 3.072-1.376 0.981-3.104 1.813-5.152 2.496s-4.427 1.024-7.179 1.024c-2.624 0-4.96-0.363-7.029-1.109-2.091-0.736-3.84-1.781-5.259-3.157-1.429-1.355-2.507-2.965-3.285-4.821-0.768-1.877-1.141-3.947-1.141-6.229 0-2.859 0.597-5.173 1.771-6.997 1.163-1.835 2.656-3.371 4.459-4.608 1.813-1.227 3.744-2.251 5.771-3.072 2.059-0.821 3.989-1.664 5.803-2.539 1.792-0.875 3.275-1.867 4.448-2.997 1.184-1.12 1.771-2.56 1.771-4.299 0-2.080-0.651-3.595-1.877-4.544-1.269-0.96-2.976-1.44-5.163-1.44-1.92 0-3.733 0.331-5.408 1.035-1.717 0.672-3.019 1.44-3.968 2.315-0.587 0.555-1.216 1.056-1.941 1.525-0.693 0.459-1.515 0.725-2.464 0.779-2.837 0-4.245-1.28-4.245-3.851 0-1.141 0.32-2.187 0.981-3.125 0.661-0.928 1.504-1.771 2.539-2.475 1.024-0.736 2.197-1.397 3.488-1.931 1.259-0.555 2.56-1.013 3.861-1.387 1.323-0.384 2.592-0.683 3.787-0.875 1.205-0.181 2.229-0.267 3.029-0.267 5.28 0 9.451 1.323 12.459 3.968 2.997 2.667 4.501 6.283 4.501 10.859 0 2.965-0.587 5.355-1.749 7.211s-2.67 3.381-4.43 4.597zM370.624 347.776l-149.888-83.893c-0.085-0.053-0.139-0.107-0.213-0.16-0.053-0.032-0.128-0.032-0.192-0.064-1.515-0.843-2.784-2.123-3.627-3.648l-83.52-149.675c-2.059-3.691-1.397-8.299 1.579-11.296 1.824-1.803 4.245-2.763 6.699-2.763 1.568 0 3.179 0.416 4.629 1.227l149.184 84c0.875 0.491 1.717 1.301 2.443 2.165 0.533 0.533 0.981 1.141 1.355 1.813l84.395 149.387c2.080 3.68 1.44 8.32-1.547 11.339-2.988 2.987-7.596 3.627-11.297 1.568zM166.080 130.443l61.269 109.813 48.181-48.181-109.45-61.632z" />
<glyph unicode="&#x4e;" d="M344 400l88-88-293.333-293.333-117.334-29.334 29.333 117.333 293.334 293.334zM373.333 312l-29.333 29.333-234.667-234.667 29.334-29.333 234.666 234.667zM468.672 348.672l-7.339-7.339-88 88 7.339 7.339c29.333 29.333 58.667 29.333 88 0s29.333-58.667 0-88z" />
<glyph unicode="&#x4f;" d="M479.051 327.584l-116.075 101.803c-4.64 3.349-10.752 3.84-15.819 1.227-1.355-0.683-2.624-1.589-3.659-2.645-0.085-0.053-0.171-0.053-0.224-0.139-0.768-0.8-1.483-1.707-2.027-2.613-0.192-0.235-0.299-0.512-0.416-0.768-0.469-0.843-0.843-1.739-1.216-2.667-0.075-0.331-0.171-0.661-0.256-1.013-0.288-1.184-0.533-2.443-0.533-3.701v-22.805l-0.011-22.389c-0.299 0-0.597 0.117-0.885 0.075-137.28-13.867-236.971-81.771-236.971-161.525 0-56.779 50.016-108.587 133.771-138.571 0.949-0.352 1.963-0.501 2.944-0.501 3.435 0 6.709 2.027 8.107 5.397 1.781 4.331-0.149 9.291-4.341 11.296-41.184 19.392-64.8 47.307-64.8 76.491 0 49.312 68.192 89.525 162.187 95.701l-0.011-46.773c0-5.728 3.232-10.987 8.341-13.557 1.003-0.555 2.123-0.885 3.211-1.131 0.992-0.245 2.005-0.352 3.040-0.416h0.021c3.328-0.117 6.72 0.683 9.557 2.752l116.085 101.835c3.915 2.88 6.261 7.413 6.283 12.309-0.021 4.872-2.389 9.448-6.303 12.328zM452.48 220.885c-8.821 0-15.989-7.179-15.989-16.043v-157.12l-377.803 0.001v288.202h79.36c8.875 0 16.043 7.157 16.043 16.011 0 8.811-7.168 15.989-16.043 15.989h-95.403c-8.821 0-15.979-7.179-15.979-15.989v-320.203c0-8.843 7.157-16.021 15.979-16.021h409.835c8.875 0 16.053 7.179 16.053 16.021v173.12c0 8.864-7.178 16.032-16.053 16.032z" />
<glyph unicode="&#x50;" d="M485.269 283.851c-1.173 15.605-12.213 45.099-45.931 45.099h-63.456c-2.827 30.741-16.597 71.019-55.051 71.019l-126.474-0.086c-4.064-0.437-38.304-5.963-42.059-70.997l-76.224-0.576c-17.109-0.715-49.333-12.117-49.333-49.824v-183.787c-0.235-3.989-0.523-20.309 10.869-32.96 8.309-9.109 20.16-13.685 35.317-13.685l367.37 0.053c15.563 1.493 45.056 13.099 45.056 46.101l0.002 188.768-0.086 0.875zM254.016 93.28c-54.891 0-99.488 44.576-99.488 99.424 0 54.859 44.597 99.445 99.488 99.445 54.795 0 99.413-44.587 99.413-99.445 0.011-54.859-44.618-99.424-99.413-99.424zM403.755 232.949c-10.891 0-19.765 8.853-19.765 19.808 0 10.859 8.875 19.733 19.765 19.733 10.869 0 19.787-8.875 19.787-19.733-0.001-10.954-8.929-19.808-19.787-19.808zM254.016 265.963c-40.416 0-73.28-32.885-73.28-73.259 0-40.384 32.864-73.259 73.28-73.259 40.341 0 73.227 32.875 73.227 73.259 0.010 40.384-32.875 73.259-73.227 73.259z" />
<glyph unicode="&#x51;" d="M474.187 455.349h-291.286c-9.141 0-16.501-7.381-16.501-16.501v-133.557h32.96v117.077h211.424l-85.12-48.267c-5.163-2.923-8.352-8.395-8.352-14.325v-255.061h-117.952v90.763h-32.96v-107.253c0-9.099 7.349-16.48 16.501-16.48h134.411v-62.592c0-5.867 3.104-11.285 8.181-14.229 2.592-1.504 5.44-2.261 8.288-2.261 2.837 0 5.611 0.725 8.149 2.155l137.067 77.749c6.752 2.057 11.67 8.244 11.67 15.657v350.624c0 9.12-7.371 16.501-16.48 16.501zM220.256 227.275c12.736 0 23.072 10.325 23.072 23.061 0 12.725-10.336 23.061-23.072 23.061h-88.192v43.008c0 3.733-2.069 7.125-5.397 8.8-3.328 1.696-7.275 1.376-10.261-0.811l-90.997-66.069c-2.529-1.866-4.076-4.832-4.076-7.989 0-3.168 1.547-6.155 4.085-8.011l90.976-66.091c1.717-1.248 3.733-1.867 5.792-1.867 1.557 0 3.072 0.331 4.491 1.067 3.328 1.696 5.397 5.099 5.397 8.8v43.040l88.182 0.001z" />
<glyph unicode="&#x52;" d="M256.021 453.333c-126.464 0-229.354-102.88-229.354-229.322 0-126.454 102.89-229.344 229.354-229.344 126.443 0 229.312 102.891 229.312 229.344 0 126.442-102.88 229.322-229.312 229.322zM345.205 203.147h-89.205c-11.509 0-20.843 9.333-20.843 20.853v160.213c0 11.509 9.333 20.853 20.843 20.853s20.843-9.333 20.843-20.853v-139.36h68.363c11.509 0 20.843-9.333 20.843-20.853s-9.334-20.853-20.844-20.853z" />
<glyph unicode="&#x53;" d="M403.413 254.101l37.909 22.699c-17.931 65.067-69.045 116.512-133.941 134.912l-22.603-37.781c59.915-12.139 107.062-59.723 118.635-119.83zM226.795 374.315l-22.731 37.995c-65.792-17.846-117.728-69.569-135.936-135.211l37.877-22.656c11.819 60.672 59.968 108.49 120.79 119.872zM106.005 196.448l-37.877-22.677c18.336-66.091 70.869-118.080 137.28-135.573l22.827 38.112c-61.515 10.879-110.315 58.986-122.23 120.138zM283.349 76.715l22.677-37.92c66.229 18.251 118.357 70.859 135.883 137.376l-38.123 22.816c-10.89-61.622-59.125-110.475-120.437-122.272zM103.2 225.44l-60.544 36.224v-23.893h-21.312v-24.502h21.312v-24.042zM469.333 237.771v25.109l-60.533-36.213 60.533-36.224v22.826h21.323v24.502zM219.691 10.773h23.957v-21.44h24.491v21.44h23.989l-36.235 60.534zM292.128 437.483h-23.989v21.184h-24.491v-21.184h-23.957l36.202-60.555z" />
<glyph unicode="&#x54;" d="M241.973 251.189c1.344-3.264 4.48-5.429 8.011-5.525 0.096 0 0.128 0 0.224 0 3.424 0 6.56 1.995 8.053 5.109l75.648 160.853c2.080 4.437 0.203 9.728-4.224 11.797-25.056 11.883-51.797 17.909-79.477 17.909-24.672 0-48.544-4.693-70.891-13.973-4.523-1.867-6.667-7.040-4.811-11.584 15.201-36.884 67.467-164.586 67.467-164.586zM373.024 384.864c-2.144 1.013-4.587 1.12-6.805 0.341-2.24-0.8-4.053-2.453-5.045-4.587l-75.669-160.843c-2.069-4.373-0.267-9.557 4.053-11.723l158.475-79.413c1.28-0.651 2.635-0.939 3.979-0.939 3.264 0 6.379 1.781 7.947 4.885 13.278 26.402 20.041 54.487 20.041 83.415 0 71.776-42.005 138.069-106.976 168.864zM380.907 121.675l-155.499 77.92c-8.085 19.637-52.427 127.701-66.208 161.184-0.896 2.187-2.624 3.915-4.8 4.832-2.197 0.896-4.64 0.896-6.816 0-70.208-29.163-115.584-96.864-115.584-172.491 0-102.805 83.659-186.443 186.453-186.443 70.699 0 134.464 39.499 166.4 103.051 1.067 2.112 1.248 4.576 0.491 6.784-0.725 2.24-2.325 4.096-4.437 5.163z" />
<glyph unicode="&#x55;" d="M256 474.667c-97.227 0-176.011-107.2-176.011-176 2.933-19.221 15.595-52.533 32.928-90.688h95.083v-42.646h42.656v-106.645h-42.656v-27.84c21.771-34.272 39.979-57.515 48-57.515 26.667 0 165.333 255.467 176.011 325.344 0 68.79-78.806 175.99-176.011 175.99zM214.059 229.984c-1.557-1.611-3.701-2.464-5.824-2.464-1.013 0-2.005 0.203-2.987 0.587-3.061 1.227-5.067 4.181-5.067 7.477v25.056c-26.069 4.875-45.515 29.131-45.515 58.592 0 32.757 24.693 59.445 55.051 59.445h47.616c30.357 0 55.040-26.688 55.040-59.445 0-2.88-0.213-5.888-0.693-9.216-4.203-29.12-27.061-50.261-54.325-50.261h-14.816l-28.48-29.771zM323.829 226.379v-17.675c0-2.816-1.739-5.365-4.352-6.4-0.832-0.331-1.707-0.491-2.539-0.491-1.909 0-3.701 0.736-5.045 2.123l-20.683 21.6h-10.432c-15.136 0-28.64 8.768-35.893 22.229l1.941 2.005h10.539c32.267 0 59.285 24.725 64.181 58.795 0.288 2.059 0.533 4.011 0.661 5.92 19.84-3.317 35.147-21.845 35.147-44.181-0.010-21.867-14.293-39.957-33.525-43.925zM175.989 176v-42.677h42.678v-42.656h-42.678v-42.667h-42.677v42.667h-42.645v42.656h42.645v42.677h42.677z" />
<glyph unicode="&#x56;" d="M312.256 86.304h-116.725l-8.704-51.189c-0.416-2.411 0.245-4.885 1.824-6.741s3.904-2.944 6.325-2.944h117.856c0.021 0 0.043 0 0.085 0 4.587 0 8.309 3.712 8.309 8.288 0 0.949-0.181 1.867-0.469 2.709l-8.501 49.877zM437.525 422.571h-363.050c-8.715 0-15.808-7.36-15.808-16.448v-286.763c0-9.099 7.093-16.459 15.808-16.459h363.040c8.715 0 15.808 7.36 15.808 16.459v286.752c0.010 9.099-7.083 16.459-15.798 16.459zM429.44 153.163h-346.869v231.861c0 8.032 6.421 14.528 14.411 14.528h318.037c7.979 0 14.421-6.496 14.421-14.528v-231.861zM225.259 299.584c-2.112-3.072-4.768-5.728-7.84-7.829l54.891-54.827c2.069 3.072 4.725 5.728 7.808 7.819l-54.859 54.837zM366.997 303.029l-54.677-57.845c3.157-2.005 5.867-4.587 8.021-7.595l54.72 57.877c-3.168 1.995-5.898 4.555-8.064 7.563zM142.432 275.147c2.773-2.475 5.067-5.419 6.741-8.779l33.109 27.2c-2.848 2.379-5.216 5.269-7.019 8.555l-32.831-26.976zM200.949 334.336c-10.101 0-18.325-8.192-18.325-18.283 0-2.4 0.512-4.661 1.355-6.773 1.408-3.531 3.883-6.507 7.029-8.555 2.837-1.867 6.24-2.976 9.941-2.976 3.029 0 5.856 0.811 8.341 2.123 3.371 1.739 6.091 4.469 7.819 7.829 1.312 2.507 2.112 5.323 2.112 8.352 0.011 10.091-8.181 18.283-18.272 18.283zM304.501 236.896c-2.421 1.173-5.077 1.877-7.883 1.877-3.051 0-5.877-0.811-8.405-2.112-3.339-1.749-6.080-4.469-7.776-7.829-1.344-2.507-2.133-5.323-2.133-8.352 0-10.091 8.203-18.304 18.325-18.304 10.059 0 18.261 8.213 18.261 18.304 0 3.232-0.875 6.187-2.368 8.821-1.823 3.296-4.618 5.963-8.021 7.595zM390.699 338.528c-10.123 0-18.315-8.203-18.315-18.293 0-3.264 0.939-6.293 2.421-8.928 1.867-3.296 4.661-5.941 8.096-7.563 2.379-1.12 4.992-1.803 7.797-1.803 10.080 0 18.272 8.192 18.272 18.304 0.001 10.080-8.191 18.283-18.271 18.283zM133.76 268.032c-3.019 2.187-6.688 3.52-10.709 3.52-10.112 0-18.304-8.192-18.304-18.293s8.192-18.293 18.304-18.293c10.123 0 18.293 8.192 18.293 18.293 0 2.059-0.405 3.989-1.056 5.835-1.227 3.615-3.52 6.73-6.528 8.938z" />
<glyph unicode="&#x57;" d="M255.989 282.336c-32.203 0-58.368-26.123-58.368-58.357 0-32.224 26.165-58.325 58.368-58.325 32.224 0 58.368 26.112 58.368 58.325 0 32.245-26.144 58.357-58.368 58.357zM475.68 232.469c-45.312 88.822-129.451 143.979-219.691 143.979-90.219 0-174.357-55.168-219.669-143.989l-4.32-8.48 4.32-8.48c45.312-88.8 129.451-143.957 219.669-143.957 90.24 0 174.379 55.157 219.691 143.957l4.32 8.48-4.32 8.49zM255.989 108.907c-73.216 0-142.091 43.861-181.803 115.072 39.712 71.221 108.587 115.083 181.803 115.083 73.237 0 142.112-43.861 181.824-115.083-39.712-71.211-108.586-115.072-181.824-115.072z" />
<glyph unicode="&#x58;" d="M444.405 86.208h-220.256c-8.341 0-15.072-6.752-15.072-15.115 0-8.341 6.731-15.115 15.072-15.115h220.256c8.341 0 15.125 6.773 15.125 15.115 0.001 8.363-6.783 15.115-15.125 15.115zM444.405 233.707h-220.256c-8.341 0-15.072-6.752-15.072-15.115 0-8.352 6.731-15.125 15.072-15.125h220.256c8.341 0 15.125 6.773 15.125 15.125 0.001 8.363-6.783 15.115-15.125 15.115zM224.149 350.987h220.256c8.341 0 15.125 6.752 15.125 15.104 0 8.363-6.784 15.115-15.125 15.115l-220.256-0.001c-8.341 0-15.072-6.752-15.072-15.115 0-8.341 6.72-15.103 15.072-15.103zM160.704 279.040h-90.688c-8.352 0-15.093-6.773-15.093-15.115v-90.667c0-8.341 6.741-15.115 15.093-15.115h90.688c8.331 0 15.072 6.784 15.072 15.115v90.667c0 8.342-6.731 15.115-15.072 15.115zM145.568 188.363h-60.427v60.459h60.427v-60.459zM160.704 131.552h-90.688c-8.352 0-15.093-6.784-15.093-15.125v-90.656c0-8.352 6.741-15.104 15.093-15.104h90.688c8.331 0 15.072 6.752 15.072 15.093v90.656c0 8.352-6.731 15.136-15.072 15.136zM145.568 40.896h-60.427v60.416h60.427v-60.416zM192.907 434.603c-6.283 4.523-15.744 3.285-20.512-2.667l-70.656-87.595-23.232 26.027c-5.088 5.643-14.699 6.453-20.651 1.664-3.104-2.496-5.003-6.016-5.344-9.92-0.309-3.851 0.96-7.584 3.584-10.539l35.019-39.221c2.816-3.157 6.891-4.939 11.2-4.939 0.064 0 0.32 0 0.352 0 4.437 0.096 8.565 2.101 11.328 5.493l81.749 101.344c2.453 3.061 3.499 6.848 2.997 10.688-0.501 3.915-2.56 7.318-5.834 9.665z" />
<glyph unicode="&#x59;" d="M468.075 389.984l-91.829 21.152c-3.296 0.779-6.752 0.405-9.835-0.992l-107.595-49.227-98.987 41.269c-3.669 1.525-7.797 1.589-11.499 0.139l-106.517-41.504c-5.92-2.293-9.813-7.978-9.813-14.325v-292.277c0-5.088 2.517-9.835 6.72-12.704 4.181-2.869 9.536-3.477 14.251-1.632l100.736 39.253 99.467-41.483c1.899-0.779 3.915-1.184 5.92-1.184 2.197 0 4.373 0.48 6.4 1.397l108.949 49.845 86.731-19.989c4.555-1.045 9.355 0.032 13.024 2.965 3.658 2.902 5.802 7.329 5.802 12.022v292.278c0 7.168-4.96 13.386-11.925 14.997zM449.237 102.048l-73.003 16.821c-3.296 0.768-6.752 0.416-9.835-1.013l-107.595-49.216-98.987 41.269c-1.888 0.8-3.904 1.184-5.92 1.184-1.888 0-3.776-0.331-5.579-1.045l-85.547-33.333 0.002 259.264 90.923 35.435 99.467-41.483c3.947-1.643 8.416-1.557 12.309 0.213l108.949 49.845 74.805-17.248 0.001-260.693zM110.592 237.952c-3.157-3.691-6.4-7.819-9.643-12.245-3.616-4.949-2.528-11.915 2.432-15.541 1.973-1.419 4.267-2.112 6.539-2.112 3.424 0 6.795 1.568 8.971 4.523 2.933 4.011 5.845 7.733 8.629 11.051 3.979 4.672 3.381 11.68-1.291 15.627-4.682 3.977-11.69 3.369-15.637-1.303zM184.736 252.491c-9.472 12.405-20.213 15.029-27.541 15.029-2.037 0-4.128-0.203-6.24-0.597-6.005-1.131-9.984-6.923-8.843-12.96 1.109-6.027 6.891-9.973 12.96-8.875 0.704 0.16 1.44 0.224 2.123 0.224 2.197 0 5.579-0.64 9.888-6.293l1.152-1.547c2.176-2.944 5.547-4.48 8.949-4.48 2.283 0 4.597 0.693 6.592 2.155 4.928 3.648 5.952 10.613 2.325 15.541l-1.365 1.803zM209.173 212.725c-2.997 5.355-9.781 7.253-15.104 4.256-5.355-3.019-7.253-9.781-4.245-15.136 4.875-8.629 9.653-17.067 14.795-25.237 2.144-3.339 5.749-5.173 9.419-5.173 2.016 0 4.075 0.544 5.92 1.707 5.173 3.275 6.731 10.133 3.467 15.317-4.876 7.722-9.537 15.893-14.252 24.266zM330.539 192.491c-4.875 3.712-11.829 2.741-15.541-2.144-6.069-8.021-12.032-14.869-17.685-20.384-4.373-4.288-4.48-11.307-0.192-15.701 2.176-2.219 5.067-3.36 7.936-3.36 2.805 0 5.589 1.056 7.765 3.147 6.432 6.293 13.109 13.973 19.861 22.869 3.701 4.895 2.752 11.861-2.144 15.573zM267.243 152.469c-6.496-0.544-12.565 1.451-19.008 6.24-4.928 3.669-11.883 2.656-15.541-2.283-3.648-4.917-2.635-11.851 2.293-15.509 9.557-7.136 19.701-10.731 30.101-10.731 1.387 0 2.784 0.064 4.181 0.181 6.112 0.565 10.603 5.952 10.048 12.064s-6.016 10.657-12.074 10.038zM360.085 242.4c-5.333 3.019-12.107 1.109-15.093-4.224-2.4-4.203-4.864-8.427-7.307-12.501-3.157-5.269-1.461-12.085 3.787-15.243 1.792-1.088 3.755-1.568 5.685-1.568 3.787 0 7.456 1.888 9.536 5.365 2.571 4.256 5.131 8.661 7.627 13.045 3.019 5.345 1.12 12.118-4.235 15.126zM378.656 319.264c-2.357 5.675-8.875 8.32-14.507 5.973-5.653-2.368-8.331-8.864-5.984-14.507l7.403-17.707-17.717-7.424c-5.664-2.357-8.32-8.864-5.952-14.539 1.771-4.235 5.899-6.816 10.219-6.816 1.44 0 2.891 0.277 4.267 0.875l17.739 7.413 7.381-17.739c1.813-4.256 5.909-6.816 10.261-6.816 1.429 0 2.88 0.277 4.256 0.853 5.643 2.368 8.341 8.864 5.973 14.528l-7.381 17.707 17.696 7.413c5.653 2.368 8.331 8.853 5.963 14.528-2.368 5.643-8.864 8.32-14.528 5.952l-17.685-7.403-7.404 17.709z" />
<glyph unicode="&#x5a;" d="M482.357 449.6c-19.349 19.317-51.339 10.155-95.925-27.509l-23.339-20.235-275.893 21.739c-22.805 2.752-38.912-0.534-48.213-9.835l-17.654-17.653 252.619-91.531-103.435-120.032-92.523 5.195-33.813-33.824 113.237-23.712 30.443-119.861 33.813 33.76-5.205 92.512 120.053 103.435 92.363-253.461 17.621 17.643c9.333 9.323 12.619 25.408 9.845 48.203l-21.717 275.893 20.245 23.339c4.469 5.867 8.629 11.243 12.427 16.064 3.787 4.832 8.277 11.573 13.461 20.203 5.216 8.672 8.384 19.115 9.6 31.381 1.238 12.254-1.439 21.726-8.010 28.286z" />
<glyph unicode="&#x5b;" d="M489.984 277.333c-1.845 5.728-7.115 9.632-13.109 9.76l-156.288 3.147-51.296 146.027c-1.974 5.642-7.307 9.429-13.291 9.429s-11.317-3.787-13.291-9.419l-51.307-146.027-156.277-3.146c-6.005-0.128-11.274-4.043-13.12-9.771s0.149-11.989 4.949-15.595l124.448-93.365-45.215-147.85c-1.739-5.739 0.32-11.947 5.141-15.488 4.832-3.541 11.381-3.648 16.32-0.235l128.352 88.373 128.352-88.373c2.411-1.664 5.216-2.496 7.989-2.496 2.923 0 5.845 0.917 8.32 2.731 4.832 3.541 6.901 9.76 5.152 15.488l-45.259 147.851 124.469 93.365c4.812 3.616 6.796 9.866 4.961 15.594z" />
<glyph unicode="&#x5c;" d="M464.437 413.536h-416.874c-8.587 0-15.563-6.976-15.563-15.563v-347.947c0-8.608 6.976-15.563 15.563-15.563h416.875c8.587 0 15.563 6.955 15.563 15.563l-0.001 347.947c0 8.587-6.976 15.563-15.563 15.563zM417.803 381.963c8.672 0 15.723-7.029 15.723-15.723 0-8.672-7.040-15.701-15.723-15.701s-15.712 7.029-15.712 15.701c0 8.693 7.029 15.723 15.712 15.723zM361.792 381.963c8.672 0 15.733-7.029 15.733-15.723 0-8.672-7.051-15.701-15.733-15.701s-15.723 7.029-15.723 15.701c0 8.693 7.040 15.723 15.723 15.723zM305.792 381.963c8.672 0 15.712-7.029 15.712-15.723 0-8.672-7.029-15.701-15.712-15.701s-15.733 7.029-15.733 15.701c0 8.693 7.050 15.723 15.733 15.723zM448.885 65.568h-385.76v256.693h385.76v-256.693zM117.643 132.235c0.907-0.469 1.877-0.704 2.869-0.704 1.259 0 2.517 0.395 3.584 1.131l79.584 56.011c1.664 1.163 2.656 3.051 2.656 5.099v23.595c0 2.037-0.992 3.947-2.677 5.109l-79.584 55.616c-1.899 1.333-4.395 1.483-6.443 0.416s-3.339-3.211-3.339-5.515v-27.659c0-1.899 0.864-3.68 2.357-4.875l43.723-34.827-43.755-35.2c-1.461-1.163-2.325-2.955-2.325-4.843v-27.84c-0.010-2.314 1.302-4.437 3.35-5.514zM198.848 132.096v-10.027c0-5.141 4.181-9.323 9.333-9.323h103.104c5.141 0 9.333 4.181 9.333 9.323v10.027c0 5.152-4.192 9.344-9.333 9.344h-103.104c-5.162 0-9.333-4.192-9.333-9.344z" />
<glyph unicode="&#x5d;" d="M342.037 458.667h-172.053c-21.515 0-39.125-17.611-39.125-39.104v-391.125c0-21.515 17.611-39.104 39.125-39.104h172.064c21.493 0 39.104 17.589 39.104 39.104v391.125c-0.011 21.493-17.621 39.104-39.115 39.104zM232.544 427.371h46.955c4.288 0 7.829-3.488 7.829-7.808s-3.541-7.83-7.829-7.83h-46.955c-4.288 0-7.808 3.509-7.808 7.829s3.509 7.809 7.808 7.809zM256 4.981c-12.971 0-23.477 10.496-23.477 23.456 0 12.971 10.507 23.477 23.477 23.477 12.992 0 23.499-10.507 23.499-23.477 0-12.96-10.507-23.456-23.499-23.456zM365.536 67.552h-219.019v312.896h219.008v-312.896z" />
<glyph unicode="&#x5e;" d="M364.672 424.395c-41.365 0-79.808-19.285-108.683-54.4-28.843 35.093-67.221 54.347-108.523 54.347-61.13-0.001-126.133-45.91-126.133-131.030 0-87.552 77.632-148.661 134.336-193.28 21.472-16.928 37.205-28.928 50.027-38.688 20.235-15.413 30.411-23.157 41.355-34.037 2.389-2.389 5.568-3.691 8.939-3.691s6.539 1.301 8.96 3.68c14.464 14.4 27.627 24.373 62.869 51.093l28.32 21.515c47.018 35.712 134.528 102.229 134.528 194.283 0 84.576-64.928 130.208-125.995 130.208z" />
<glyph unicode="&#x5f;" d="M152.267 282.005c0-9.952 7.627-17.984 16.971-17.984 0.085 0 0.203 0 0.288 0 3.488-47.413 40.843-94.837 86.464-94.837 45.589 0 82.944 47.435 86.443 94.837 0.107 0 0.224 0 0.32 0 9.344 0 16.949 8.032 16.949 17.984 0 7.339-4.096 13.621-10.027 16.416 3.424 10.667 5.301 22.037 5.301 33.931 0.011 57.973-44.299 104.981-98.965 104.981-54.677 0-98.997-47.019-98.997-104.992 0-11.893 1.899-23.264 5.323-33.931-5.953-2.794-10.070-9.077-10.070-16.405zM472.693 59.477c-40.395 39.264-89.76 66.944-142.827 80.181-1.333 0.757-2.859 1.141-4.416 1.141h-4.811c-1.536 0-3.019-0.373-4.363-1.099-16-8.597-37.995-13.525-60.267-13.525-22.293 0-44.267 4.928-60.299 13.525-1.355 0.715-2.848 1.099-4.373 1.099l-3.497 0.001c-0.725 0-1.44-0.085-2.123-0.235-54.464-12.907-105.067-40.928-146.421-81.088-1.813-1.739-2.784-4.117-2.784-6.613v-32.949c0.011-5.078 4.128-9.248 9.216-9.248h420.533c5.109 0 9.205 4.171 9.205 9.248v32.949c0.022 2.496-0.97 4.896-2.773 6.613z" />
<glyph unicode="&#x60;" d="M489.824 201.6c-2.027-4.075-6.784-6.112-14.251-6.112h-43.787l0.001-159.861c0-7.488-0.843-12.896-2.549-16.309-1.685-3.381-6.272-5.088-13.739-5.088l-106.923-0.001v160.896h-105.899v-160.885h-101.824c-6.112 0-10.859 1.013-14.261 3.061-3.392 2.016-5.429 4.235-6.101 6.613-0.672 2.379-1.024 6.293-1.024 11.723v159.862h-43.776c-7.467 0-12.053 2.027-13.749 6.112-1.707 4.064 0.181 8.821 5.611 14.251l208.724 209.759c5.44 5.429 11.872 8.149 19.339 8.149s13.931-2.709 19.339-8.149l209.771-209.771c5.439-5.418 7.146-10.175 5.098-14.25z" />
<glyph unicode="&#x61;" d="M396 336v84h-28v-84h-84v-28h84v-84h28v84h84v-280c0-7.573-2.784-14.144-8.309-19.691-5.536-5.536-12.096-8.309-19.691-8.309h-181.12c1.76 6.997 2.624 13.995 2.624 21.003 0 23.328-4.096 42.581-12.245 57.749-8.149 15.189-22.453 29.76-42.88 43.765-8.747 6.432-17.781 14.571-27.125 24.501-9.344 9.931-13.995 18.091-13.995 24.501 0 8.171 1.909 15.168 5.685 21.003s12.096 13.717 24.939 23.627c29.152 22.763 43.765 49.877 43.765 81.376 0 20.427-4.384 38.933-13.12 55.563-8.736 16.619-21.003 27.851-36.757 33.675h49.003l34.997 25.387-156.651-0.001c-36.747-0.021-69.12-12.277-97.12-36.778v44.629c0 7.573 2.784 14.144 8.309 19.691 5.536 5.536 12.096 8.309 19.691 8.309h392c7.595 0 14.155-2.763 19.691-8.309 5.514-5.547 8.309-12.118 8.309-19.691v-84h-84zM32 212.629c21.589-18.667 48.405-28 80.501-28 5.845 0 10.784 0.299 14.88 0.875-5.237-10.496-7.872-20.128-7.872-28.875 0-15.168 6.997-29.76 21.003-43.765-2.901 0-7.435 0-13.557 0s-10.656 0-13.557 0c-29.152 0-56.277-5.824-81.376-17.504l-0.001 117.269zM182.059 83.125c6.123-4.085 10.347-6.997 12.683-8.757s5.675-4.224 10.059-7.435c4.373-3.2 7.584-5.995 9.611-8.32 2.037-2.325 4.384-4.939 6.997-7.872 2.624-2.912 4.661-5.984 6.123-9.173s2.784-6.56 3.936-10.059c1.152-5.824 1.76-11.381 1.76-16.629s-0.257-10.208-0.855-14.88h-172.373c-7.595 0-14.155 2.763-19.691 8.309-5.514 5.547-8.309 12.118-8.309 19.691v29.749c10.496 12.245 24.501 22.176 42.005 29.76s36.16 11.093 56 10.496c13.408 0 26.251-2.048 38.496-6.112 2.902-1.77 7.435-4.693 13.558-8.768zM134.816 200.373c-20.128 0.576-38.496 10.496-55.125 29.76-16.619 19.264-26.677 42.005-30.176 68.235-3.499 26.251 0.715 48.267 12.672 66.059 11.968 17.792 28 26.389 48.128 25.813 20.128-0.565 38.496-10.208 55.125-28.875s26.688-41.12 30.187-67.371-0.715-48.565-12.683-66.933-28.011-27.264-48.128-26.688z" />
<glyph unicode="&#x62;" d="M458.123 426.123c14.581-14.582 21.877-32.086 21.877-52.502v-299.253c0-20.416-7.296-37.909-21.877-52.501-14.592-14.571-32.086-21.867-52.502-21.867h-299.242c-20.416 0-37.909 7.296-52.501 21.877-14.582 14.592-21.878 32.086-21.878 52.502v299.242c0 20.416 7.296 37.909 21.877 52.501 14.592 14.582 32.086 21.878 52.502 21.878h299.253c20.405 0 37.909-7.296 52.491-21.877zM163.253 314.56c6.997 6.709 10.496 15.019 10.496 24.939 0 10.496-3.349 19.104-10.059 25.813s-15.765 10.059-27.125 10.059c-11.371 0-20.704-3.349-28-10.059s-10.933-15.317-10.933-25.813c0-9.92 3.499-18.229 10.496-24.939s16.043-10.059 27.125-10.059h0.875c11.083 0 20.117 3.35 27.125 10.059zM169.376 276.501h-67.381v-203.872h67.371l-0.001 203.872zM414.379 189.877c0 30.336-7.147 53.227-21.44 68.683s-33.397 23.189-57.312 23.189c-25.664 0-45.792-11.381-60.373-34.123v28.875h-68.245c0.587-12.245 0.587-80.213 0-203.872h68.245l-0.001 113.75c0 7.584 0.576 13.12 1.749 16.629 6.997 16.917 18.667 25.376 34.997 25.376 22.752 0 34.123-15.456 34.123-46.379v-109.376h68.235l0.022 117.248z" />
<glyph unicode="&#x63;" d="M490.667 224c0-56.224-6.421-109.995-19.253-161.333-68.449-9.782-140.246-14.667-215.414-14.667s-146.965 4.885-215.413 14.667c-12.832 51.338-19.254 105.109-19.254 161.333s6.422 109.995 19.254 161.333c68.448 9.782 140.245 14.667 215.413 14.667s146.965-4.885 215.413-14.667c12.832-51.338 19.254-105.109 19.254-161.333zM344 224l-146.667 88v-176l146.667 88z" />
<glyph unicode="&#x64;" d="M490.667 369.557c-17.259-7.637-35.829-12.821-55.296-15.147 19.861 11.904 35.147 30.773 42.325 53.259-18.592-11.051-39.2-19.040-61.131-23.381-17.579 18.731-42.581 30.411-70.283 30.411-53.163 0-96.288-43.115-96.288-96.277 0-7.552 0.853-14.901 2.507-21.941-80.043 4.011-150.976 42.347-198.485 100.587-8.267-14.208-13.035-30.752-13.035-48.395 0-33.408 17.003-62.901 42.869-80.139-15.797 0.491-30.656 4.821-43.616 12.021-0.021-0.395-0.021-0.79-0.021-1.195 0-46.645 33.195-85.557 77.227-94.421-8.085-2.208-16.587-3.36-25.365-3.36-6.219 0-12.245 0.597-18.133 1.728 12.256-38.251 47.819-66.091 89.952-66.88-32.96-25.824-74.475-41.216-119.573-41.216-7.776 0-15.424 0.459-22.976 1.355 42.624-27.307 93.237-43.264 147.616-43.264 177.099 0 273.941 146.72 273.941 273.973 0 4.149-0.085 8.32-0.256 12.427 18.815 13.599 35.103 30.538 48.021 49.855z" />
<glyph unicode="&#x65;" d="M204.448 40.981c-2.187-1.632-4.352-2.731-7.072-2.731-2.709 0-4.896 1.088-7.061 2.731l-166.144 166.112c-3.776 3.797-3.776 10.336 0 14.123l68.427 68.405c3.776 3.787 10.315 3.787 14.091 0l90.677-91.211 207.946 208.481c3.787 3.829 10.315 3.829 14.091 0l68.427-68.416c3.776-3.787 3.776-10.304 0-14.101l-283.382-283.393z" />
<glyph unicode="&#x66;" d="M384.608 175.488c4.096-10.784 8.747-19.243 13.984-25.365 5.248-6.123 11.232-11.808 17.963-17.067 6.699-5.248 11.349-8.597 13.995-10.059 2.603-1.461 5.099-2.773 7.424-3.936-7.584-23.925-17.781-44.917-30.624-62.987-8.16-12.235-14.709-21.429-19.68-27.552-4.949-6.123-11.947-12.245-21.003-18.379-9.013-6.123-18.219-9.184-27.541-9.184-9.909-0.587-21.877 2.187-35.872 8.32-13.995 6.123-26.848 9.173-38.496 9.173-12.235 0-25.376-2.912-39.349-8.747-13.995-5.845-25.387-9.045-34.123-9.621-8.747-0.597-17.781 2.325-27.115 8.747-9.344 6.421-16.907 13.12-22.763 20.128-5.845 6.997-12.843 16.331-21.003 28-13.408 19.829-24.48 42.443-33.237 67.808s-13.12 52.629-13.12 81.792c0 29.152 6.123 54.539 18.389 76.117 9.899 16.907 23.008 30.325 39.349 40.235 16.341 9.92 34.123 15.168 53.376 15.755 10.496 0 24.224-3.2 41.12-9.621s27.712-9.621 32.363-9.621c4.107 0 16.032 3.648 35.861 10.933 19.84 7.285 36.469 10.347 49.867 9.173 35.584-1.163 62.987-16.032 82.24-44.619-32.64-21.003-48.693-49.291-48.107-84.853-0.031-12.277 2.006-23.786 6.102-34.57zM291.424 352.213c-11.957-6.123-24.053-8.608-36.299-7.435-2.901 23.904 5.237 46.933 24.501 69.109 7.584 9.333 17.632 17.205 30.187 23.627 12.512 6.421 24.331 9.931 35.413 10.496 2.901-25.675-4.949-49.568-23.605-71.733-8.17-9.941-18.218-17.952-30.197-24.064z" />
<glyph unicode="&#x67;" d="M480 224c0-61.824-21.877-114.624-65.621-158.379s-96.534-65.621-158.379-65.621-114.624 21.877-158.379 65.621c-43.754 43.744-65.621 96.555-65.621 158.379s21.877 114.624 65.621 158.379c43.744 43.754 96.534 65.621 158.379 65.621s114.624-21.877 158.379-65.621c43.754-43.744 65.621-96.555 65.621-158.379zM421.376 196h-81.376v56h81.376c-5.845 34.997-21.44 65.184-46.816 90.56s-55.563 40.981-90.56 46.816v-81.376h-56v81.376c-34.997-5.824-65.184-21.44-90.56-46.816s-40.971-55.563-46.816-90.56h81.376v-56h-81.376c5.845-34.997 21.44-65.184 46.816-90.56s55.563-40.981 90.56-46.816v81.376h56v-81.376c34.997 5.824 65.184 21.44 90.56 46.816s40.971 55.563 46.816 90.56z" />
<glyph unicode="&#x68;" d="M486.475 194.144c-9.419 9.419-254.112 254.101-254.112 254.101l-106.016-3.083-33.238-33.226c9.76-11.627 18.923-23.381 25.941-33.867 5.92 3.136 12.672 4.939 19.819 4.939 23.424 0 42.411-18.987 42.411-42.421 0-23.403-18.976-42.4-42.411-42.4-23.403 0-42.389 18.987-42.389 42.4 0 5.12 0.949 9.984 2.592 14.528-10.432 7.819-22.304 18.283-33.76 29.035l-25.717-25.717v-109.291l253.515-253.504c0 0 7.573-10.4 17.973 0 10.411 10.411 175.403 175.403 175.403 175.403s9.418 13.663-0.011 23.103zM124.384 348.544c0.267 0 0.789 0.011 1.003 0.235 6.005 6.005-31.104 55.115-81.131 107.477-1.387 0.256-4.224 0.715-7.488 0.715-4.224 0-9.952-0.8-12.981-4.64-2.592-3.264-3.126-8.438-1.611-15.435 32.139-34.443 87.755-88.352 102.208-88.352z" />
<glyph unicode="&#x69;" d="M21.344 272.565c0 5.323 4.277 9.579 9.568 9.579l166.432 0.405v166.432c0 5.323 4.256 9.568 9.568 9.568l98.187-0.213c5.322 0 9.568-4.245 9.568-9.547v-166.229h166.443c5.29 0 9.557-4.267 9.557-9.589v-98.133c0-5.333-4.267-9.493-9.557-9.504l-166.443-0.001v-166.325c0-5.301-4.245-9.568-9.557-9.568h-98.187c-5.333 0-9.568 4.267-9.568 9.568v166.325h-166.464c-5.27-0.010-9.558 4.352-9.558 9.686l0.011 97.546z" />
<glyph unicode="&#x6a;" d="M218.677 133.333h-42.677v42.667h-42.677v-42.667h-42.646v-42.666h42.646v-42.667h42.677v42.667h42.677zM256.011 469.333c-97.238 0-176.032-107.189-176.032-175.989 2.933-19.232 15.595-52.544 32.928-90.688h95.083l-0.001-31.989v-10.667h42.656v-106.656h-42.656v-27.84c21.771-34.272 39.979-57.504 48.022-57.504 26.645 0 165.333 255.467 176.011 325.344-0.001 68.8-78.806 175.989-176.011 175.989zM256 234.667c-32.395 0-58.667 26.272-58.667 58.667s26.272 58.666 58.667 58.666 58.667-26.272 58.667-58.667-26.272-58.666-58.667-58.666z" />
<glyph unicode="&#x6b;" d="M37.461 80.437c-4.117 4.107-4.117 10.677-0.021 14.784l128.064 128.693-128.395 128.395c-4.085 4.096-4.107 10.645 0 14.763l75.915 75.573c4.107 4.107 10.667 4.096 14.752 0l128.224-128.234 128.384 128.405c4.096 4.107 10.677 4.107 14.784 0l75.733-75.733c4.107-4.107 4.107-10.677 0-14.795l-128.384-128.373 128.224-128.224c4.096-4.107 4.117-10.667 0-14.773l-75.744-75.755c-4.128-4.107-10.688-4.085-14.773 0l-128.213 128.245-128.533-128.224c-4.107-4.085-10.677-4.085-14.795 0l-75.222 75.253z" />
<glyph unicode="&#x6c;" d="M30.901 165.312c-5.312 0-9.568 4.235-9.568 9.579l0.213 98.219c0 5.333 4.256 9.579 9.568 9.579h449.984c5.312 0 9.568-4.245 9.568-9.579v-98.219c0-5.344-4.256-9.579-9.568-9.579h-450.197z" />
<glyph unicode="&#x6e;" d="M109.333 282.667v-117.333c0-7.936-2.901-14.816-8.704-20.629-5.792-5.804-12.672-8.705-20.629-8.705-7.947 0-14.827 2.901-20.629 8.704-5.792 5.813-8.704 12.683-8.704 20.629v117.333c0 7.936 2.912 14.816 8.704 20.629 5.802 5.793 12.682 8.705 20.629 8.705 7.957 0 14.837-2.901 20.629-8.704 5.792-5.824 8.704-12.693 8.704-20.629zM124 282.667h264v-161.333c0-12.224-4.288-22.613-12.832-31.157-8.533-8.587-18.955-12.832-31.168-12.832h-14.667v-58.667c0-7.947-2.901-14.827-8.704-20.629s-12.682-8.716-20.629-8.716-14.827 2.901-20.629 8.704c-5.792 5.803-8.704 12.672-8.704 20.629v58.667h-29.333v-58.667c0-7.947-2.901-14.827-8.704-20.629s-12.683-8.704-20.63-8.704-14.827 2.901-20.629 8.704c-5.792 5.803-8.704 12.672-8.704 20.629v58.667h-14.667c-12.213 0-22.613 4.267-31.168 12.832-8.565 8.533-12.832 18.933-12.832 31.157v161.345zM362.795 375.243c13.749-18.933 21.835-40.021 24.288-63.243h-262.166c2.453 23.221 10.539 44.309 24.288 63.243 13.749 18.955 31.328 33.003 52.704 42.165l-19.253 35.755c-0.619 2.443 0.16 4.128 2.293 5.045 2.123 0.917 3.819 0.448 5.045-1.387l18.336-36.672c15.285 6.123 31.168 9.173 47.669 9.173s32.384-3.051 47.669-9.173l18.336 36.672c1.216 1.835 2.901 2.293 5.045 1.376 2.133-0.917 2.901-2.592 2.293-5.045l-19.262-35.744c21.387-9.173 38.965-23.221 52.715-42.165zM218.421 356c0 6.112-1.995 11.157-5.963 15.125-3.968 3.979-9.013 5.952-15.125 5.952s-11.157-1.984-15.125-5.952c-3.968-3.968-5.963-9.013-5.963-15.125s1.995-11.147 5.963-15.125 9.013-5.963 15.125-5.963 11.157 1.984 15.125 5.963 5.963 9.013 5.963 15.125zM335.755 356c0 6.112-1.995 11.157-5.963 15.125-3.968 3.979-9.013 5.952-15.125 5.952s-11.157-1.984-15.125-5.952c-3.968-3.968-5.963-9.013-5.963-15.125s1.995-11.147 5.963-15.125 9.013-5.963 15.125-5.963 11.157 1.984 15.125 5.963 5.963 9.013 5.963 15.125zM461.333 282.667v-117.333c0-7.936-2.912-14.816-8.704-20.629-5.803-5.792-12.672-8.704-20.629-8.704s-14.837 2.901-20.629 8.704c-5.792 5.813-8.704 12.683-8.704 20.629v117.333c0 7.936 2.901 14.816 8.704 20.629 5.792 5.792 12.672 8.704 20.629 8.704 7.947 0 14.827-2.901 20.629-8.704 5.792-5.824 8.704-12.693 8.704-20.629z" />
<glyph unicode="&#x6f;" d="M458.123 426.123c14.592-14.571 21.877-32.075 21.877-52.502v-299.253c0-20.427-7.285-37.909-21.877-52.501-14.603-14.571-32.096-21.867-52.502-21.867h-79.627l0.001 168h69.995v69.995h-69.995v35.872c0 5.824 1.472 10.795 4.373 14.88 2.912 4.085 6.123 6.123 9.621 6.123h56v69.12h-56c-23.339 0-43.157-8.885-59.499-26.688s-24.49-39.222-24.49-64.299v-34.997h-56v-69.995h56v-168.011h-149.621c-20.405 0-37.899 7.296-52.501 21.877-14.593 14.582-21.878 32.075-21.878 52.502v299.242c0 20.427 7.285 37.909 21.877 52.501 14.603 14.582 32.096 21.878 52.502 21.878h299.253c20.395 0 37.899-7.296 52.491-21.877z" />
<glyph unicode="&#x70;" d="M262.443 91.499l-77.387 39.509c-2.699-10.635-7.691-20.341-14.528-28.512l77.387-39.509c2.688 10.624 7.68 20.341 14.528 28.512zM408.224 273.013c22.133 0 40.085-17.952 40.085-40.096s-17.952-40.096-40.085-40.096c-22.144 0-40.107 17.952-40.107 40.096s17.952 40.096 40.107 40.096zM317.728 85.397c22.133 0 40.085-17.952 40.085-40.096s-17.952-40.096-40.085-40.096c-22.144 0-40.107 17.952-40.107 40.096s17.963 40.096 40.107 40.096zM115.243 188.779c22.133 0 40.096-17.952 40.096-40.096s-17.963-40.096-40.096-40.096-40.096 17.952-40.096 40.096 17.962 40.096 40.096 40.096zM91.915 462.955c22.133 0 40.096-17.952 40.096-40.096s-17.963-40.096-40.096-40.096-40.096 17.962-40.096 40.106 17.962 40.086 40.096 40.086zM356.256 282.784l-195.872 117.632c-3.413-10.379-9.12-19.701-16.523-27.413l195.872-117.632c3.424 10.378 9.131 19.712 16.523 27.413zM187.136 152.715l157.973 45.419c-5.099 9.205-8.171 19.659-8.779 30.763l-157.983-45.42c5.098-9.216 8.16-19.669 8.789-30.762z" />
<glyph unicode="&#x71;" d="M119.392 351.125c-8.96-5.611-19.2-9.355-30.208-10.56l81.333-234.197c8.96 5.611 19.2 9.355 30.208 10.56l-81.333 234.197zM416.277 421.44c22.133 0 40.085-17.952 40.085-40.096s-17.952-40.096-40.085-40.096c-22.144 0-40.107 17.952-40.107 40.096s17.963 40.096 40.107 40.096zM208.661 85.397c22.133 0 40.096-17.952 40.096-40.096s-17.963-40.096-40.096-40.096-40.096 17.952-40.096 40.096 17.963 40.096 40.096 40.096zM81.248 452.288c22.133 0 40.096-17.952 40.096-40.096s-17.963-40.096-40.096-40.096-40.096 17.963-40.096 40.107 17.963 40.085 40.096 40.085zM434.219 209.675c22.133 0 40.096-17.952 40.096-40.096s-17.963-40.096-40.096-40.096-40.096 17.952-40.096 40.096 17.962 40.096 40.096 40.096zM277.909 65.184l102.56 56.512c-7.104 7.968-12.459 17.472-15.488 28l-102.56-56.512c7.094-7.957 12.47-17.472 15.488-28zM434.219 241.675c3.403 0 6.731-0.32 10.016-0.779l-6.080 71.776c-6.901-2.208-14.251-3.413-21.877-3.413-3.413 0-6.741 0.32-10.027 0.779l6.080-71.776c6.912 2.197 14.261 3.413 21.888 3.413zM344.875 371.851c-0.405 3.115-0.693 6.272-0.693 9.493 0 7.808 1.291 15.328 3.605 22.379l-195.136 17.973c0.405-3.115 0.693-6.272 0.693-9.493 0-7.808-1.291-15.328-3.605-22.379l195.136-17.973z" />
<glyph unicode="&#x72;" d="M256.011 469.333c-97.238 0-176.032-107.189-176.032-175.989 2.933-19.232 15.595-52.544 32.928-90.688h95.083l-0.001-31.989v-10.667h42.656v-106.646h-42.656v-27.84c21.771-34.271 39.979-57.514 48.022-57.514 26.645 0 165.333 255.467 176.011 325.344-0.001 68.8-78.806 175.989-176.011 175.989zM214.773 348.885c0 22.517 18.464 40.747 41.269 40.747 22.795 0 41.269-18.229 41.269-40.747 0-4.619-0.789-9.024-2.219-13.173 2.464-1.088 4.192-3.541 4.192-6.379 0-3.851-3.168-6.976-7.061-6.976-0.053 0-0.085 0-0.128 0-1.472-18.4-17.045-36.821-36.053-36.821-19.019 0-34.592 18.432-36.053 36.821-0.043 0-0.075 0-0.128 0-3.904 0-7.083 3.125-7.083 6.976 0 2.837 1.739 5.291 4.203 6.379-1.429 4.149-2.208 8.555-2.208 13.173zM336.885 227.584c0-1.984-1.515-3.573-3.392-3.573h-154.912c-1.877 0-3.392 1.589-3.392 3.573v12.789c0 0.971 0.373 1.899 1.035 2.571 15.232 15.595 33.877 26.475 53.941 31.467 0.235 0.075 0.512 0.107 0.768 0.107h1.291c0.565 0 1.109-0.149 1.6-0.437 5.92-3.328 14.005-5.248 22.219-5.248s16.299 1.92 22.208 5.248c0.491 0.288 1.045 0.437 1.589 0.437h1.781c0.576 0 1.131-0.16 1.632-0.448 19.541-5.12 37.717-15.883 52.597-31.125 0.661-0.661 1.035-1.6 1.035-2.571v-12.79zM218.677 133.333h-42.677v42.667h-42.677v-42.667h-42.646v-42.656h42.646v-42.677h42.677v42.677h42.677z" />
<glyph unicode="&#x73;" d="M350.923 431.744l34.464-35.563-168.875-163.584 168.683-163.712-34.475-35.53-205.323 199.274z" />
<glyph unicode="&#x74;" d="M179.861 33.355l-34.464 35.562 168.875 163.574-168.693 163.722 34.485 35.531 205.323-199.285z" />
<glyph unicode="&#x75;" d="M512 224c-0.639 33.431-7.892 66.758-21.288 97.231-13.352 30.5-32.731 58.129-56.521 80.96-23.776 22.848-51.972 40.91-82.492 52.826-30.502 11.962-63.298 17.676-95.699 16.983-32.405-0.641-64.666-7.687-94.167-20.678-29.524-12.948-56.271-31.735-78.367-54.788-22.112-23.041-39.58-50.354-51.093-79.899-11.557-29.531-17.064-61.26-16.373-92.635 0.643-31.38 7.482-62.574 20.067-91.103 12.544-28.55 30.738-54.414 53.055-75.774 22.305-21.377 48.736-38.252 77.307-49.36 28.559-11.152 59.223-16.451 89.571-15.763 30.354 0.645 60.481 7.277 88.038 19.457 27.575 12.141 52.558 29.74 73.183 51.322 20.641 21.57 36.922 47.118 47.627 74.715 6.517 16.729 10.94 34.2 13.271 51.899 0.623-0.036 1.249-0.060 1.881-0.060 17.673 0 32 14.326 32 32 0 0.898-0.047 1.786-0.119 2.666h0.119zM461.153 139.026c-11.736-26.601-28.742-50.7-49.589-70.59-20.835-19.905-45.5-35.593-72.122-45.895-26.614-10.339-55.145-15.226-83.442-14.541-28.302 0.649-56.298 6.868-81.91 18.237-25.625 11.333-48.842 27.745-67.997 47.856-19.169 20.099-34.264 43.882-44.161 69.529-9.935 25.642-14.614 53.107-13.932 80.378 0.651 27.276 6.664 54.206 17.627 78.845 10.929 24.65 26.749 46.985 46.123 65.405 19.365 18.434 42.265 32.935 66.937 42.428 24.669 9.53 51.068 14.003 77.313 13.322 26.25-0.653 52.114-6.459 75.781-17.017 23.676-10.525 45.128-25.751 62.812-44.391 17.698-18.629 31.605-40.647 40.695-64.344 9.124-23.696 13.391-49.029 12.712-74.248h0.119c-0.072-0.88-0.119-1.768-0.119-2.666 0-16.506 12.496-30.087 28.543-31.812-3.112-17.411-8.265-34.409-15.39-50.496z" />
<glyph unicode="&#x76;" d="M123.723 229.909c1.707 2.379 2.56 5.707 2.56 9.973 0 3.787-0.8 6.848-2.379 9.163-1.589 2.315-3.669 4.064-6.229 5.227-2.56 1.152-5.397 1.92-8.512 2.283s-6.133 0.555-9.067 0.555l-19.968-0.001v-35.168h17.952c3.296 0 6.592 0.149 9.888 0.459 3.296 0.299 6.315 1.024 9.056 2.187 2.752 1.173 4.981 2.944 6.699 5.322zM257.28 479.104c-141.6 0-256.384-114.784-256.384-256.384 0-141.589 114.784-256.384 256.384-256.384 141.589 0 256.384 114.795 256.384 256.384 0 141.6-114.784 256.384-256.384 256.384zM127.019 147.221l-30.037 54.933h-16.853v-54.933h-23.073v129.664h45.045c6.229 0 12.245-0.576 18.037-1.739 5.803-1.163 10.955-3.147 15.477-5.952 4.512-2.816 8.117-6.592 10.805-11.36 2.677-4.757 4.021-10.805 4.021-18.133 0-9.408-2.592-17.28-7.776-23.616-5.195-6.357-12.608-10.208-22.251-11.541l34.432-57.333h-27.827zM261.643 147.221h-89.195v129.664h85.888v-20.885h-62.816v-31.872h59.531v-20.875h-59.531v-35.168h66.133v-20.864zM361.632 167.072c-2.56-5.184-6.016-9.483-10.357-12.896s-9.376-5.984-15.104-7.691c-5.749-1.707-11.787-2.56-18.144-2.56-8.043 0-15.787 1.333-23.253 4.021-7.456 2.667-13.856 7.211-19.232 13.557l17.397 16.832c2.816-4.245 6.496-7.605 11.083-9.963 4.587-2.4 9.44-3.584 14.56-3.584 2.667 0 5.376 0.373 8.064 1.109 2.667 0.725 5.12 1.835 7.339 3.296 2.187 1.461 3.957 3.317 5.291 5.579 1.355 2.251 2.016 4.853 2.016 7.787 0 4.747-1.547 8.416-4.587 10.976s-6.859 4.725-11.349 6.496c-4.523 1.771-9.461 3.456-14.837 5.045s-10.315 3.755-14.837 6.496-8.309 6.411-11.349 10.987c-3.061 4.576-4.587 10.709-4.587 18.411 0 6.709 1.376 12.512 4.107 17.397 2.773 4.885 6.357 8.939 10.837 12.181 4.437 3.232 9.547 5.653 15.296 7.232 5.728 1.579 11.584 2.379 17.557 2.379 6.859 0 13.461-1.035 19.872-3.115 6.421-2.069 12.192-5.493 17.312-10.251l-16.853-17.771c-2.443 3.541-5.707 6.144-9.792 7.787-4.107 1.643-8.395 2.475-12.896 2.475-2.709 0-5.291-0.309-7.808-0.917-2.496-0.619-4.747-1.589-6.773-2.933-2.005-1.333-3.648-3.083-4.853-5.216-1.205-2.144-1.835-4.672-1.835-7.605 0-4.395 1.525-7.755 4.608-10.069 3.040-2.315 6.816-4.331 11.328-6.048 4.523-1.707 9.461-3.349 14.837-4.949 5.376-1.568 10.315-3.776 14.859-6.581 4.501-2.816 8.288-6.539 11.349-11.189 3.040-4.629 4.565-10.795 4.565-18.475 0.009-6.955-1.26-13.025-3.831-18.23zM439.093 256v-108.789h-23.083l0.001 108.789h-39.733v20.885h102.56l-0.001-20.885h-39.744z" />
<glyph unicode="&#x77;" d="M449.18 448h-385.18v-64h-46.82c-8.8 0-17.18-6.264-17.18-15.064v-32c0-8.8 8.38-16.936 17.18-16.936h46.82v-32h-46.82c-8.8 0-17.18-6.264-17.18-15.064v-32c0-8.8 8.38-16.936 17.18-16.936h46.82v-32h-46.82c-8.8 0-17.18-6.264-17.18-15.064v-32c0-8.799 8.38-16.936 17.18-16.936h46.82v-32h-46.82c-8.8 0-17.18-6.264-17.18-15.064v-32c0-8.8 8.38-16.936 17.18-16.936h46.82v-64h385.18c17.674 0 30.82 15.263 30.82 32.936v416c0 17.673-13.146 31.064-30.82 31.064zM160 0h-64v32h17.18c8.8 0 14.82 8.136 14.82 16.936v32c0 8.801-6.021 15.064-14.82 15.064h-17.18v32h17.18c8.8 0 14.82 8.136 14.82 16.936v32c0 8.801-6.021 15.064-14.82 15.064h-17.18v32h17.18c8.8 0 14.82 8.136 14.82 16.936v32c0 8.801-6.021 15.064-14.82 15.064h-17.18v32h17.18c8.8 0 14.82 8.136 14.82 16.936v32c0 8.801-6.020 15.064-14.82 15.064h-17.18v32h64v-416z" />
<glyph unicode="&#x78;" d="M256.407 403.415c-99.424 0-180.024-80.618-180.024-180.023 0-99.425 80.6-180.024 180.024-180.024s180.024 80.599 180.024 180.024c0 99.424-80.599 180.023-180.024 180.023zM256.407 82.503c-77.822 0-140.888 63.087-140.888 140.889 0 77.801 63.067 140.888 140.888 140.888s140.888-63.087 140.888-140.888c0-77.802-63.068-140.889-140.888-140.889zM270.105 325.145h-27.395v-107.428l66.629-66.627 19.371 19.371-58.604 58.606v96.078zM454.224 365.055c-26.362 37.885-62.437 67.185-104.642 85.098l8.382 21.001-70.32-12.183 42.557-57.381 8.255 20.684c36.734-15.726 68.145-41.312 91.14-74.358 24.885-35.761 38.038-77.784 38.038-121.525 0-117.464-95.563-213.027-213.028-213.027l0.001-30.004c134.009 0 243.032 109.024 243.032 243.032 0 49.899-15.012 97.846-43.415 138.663z" />
<glyph unicode="&#x79;" d="M23.307 381.568l191.232 26.048 0.085-184.48-191.147-1.077zM237.632 411.029l253.568 37.003v-222.539l-253.568-2.016zM214.443 201.909l0.149-184.64-191.147 26.272v159.584zM237.28 200.597l0.352-186.165 253.568-35.808 0.085 221.557z" />
</font>
</defs>
</svg>
